<?xml version="1.0" encoding="UTF-8" standalone="no"?>
<!DOCTYPE svg PUBLIC "-//W3C//DTD SVG 1.1//EN" "http://www.w3.org/Graphics/SVG/1.1/DTD/svg11.dtd">
<svg xmlns="http://www.w3.org/2000/svg" version="1.1" viewBox="0 0 179 169">
<g stroke-width="2.00" fill="none" stroke-linecap="butt">
</g>
<path fill="#000000" d="
  M 179.00 31.56
  L 179.00 46.81
  Q 177.95 53.38 174.94 57.94
  Q 162.60 76.63 140.37 75.29
  A 1.95 1.93 -68.8 0 0 138.74 76.02
  Q 130.50 86.47 119.69 92.94
  Q 116.80 94.66 113.01 92.48
  Q 109.12 90.24 108.73 86.17
  Q 108.59 84.67 109.57 81.05
  Q 110.21 78.71 110.72 75.95
  A 0.66 0.65 11.1 0 0 110.20 75.19
  Q 88.45 70.85 81.03 53.09
  Q 77.05 43.54 78.55 33.52
  Q 80.65 19.41 92.69 10.19
  Q 98.35 5.85 105.40 4.20
  Q 109.48 3.24 119.17 3.25
  Q 132.09 3.27 145.00 3.32
  Q 157.06 3.37 166.31 10.94
  Q 176.78 19.49 179.00 31.56
  Z
  M 102.33 63.95
  Q 108.15 66.78 115.00 66.82
  Q 119.66 66.85 119.47 71.50
  Q 119.29 76.04 118.34 80.48
  Q 118.22 81.06 117.93 81.86
  Q 116.66 85.38 119.29 83.05
  Q 119.94 82.47 120.38 82.14
  Q 127.67 76.57 133.38 69.37
  Q 136.03 66.02 140.50 66.45
  Q 149.76 67.34 157.20 63.38
  Q 164.63 59.42 168.69 52.00
  Q 171.87 46.20 171.97 39.41
  Q 172.07 33.05 169.22 27.09
  Q 164.13 16.43 152.87 12.90
  Q 148.41 11.50 139.48 11.50
  Q 129.74 11.50 119.99 11.50
  Q 110.82 11.50 107.09 12.43
  Q 100.33 14.13 95.44 18.74
  Q 88.76 25.03 87.00 34.88
  Q 84.90 46.57 92.52 55.99
  Q 96.77 61.25 102.33 63.95
  Z"
/>
<path fill="#000000" d="
  M 137.94 169.00
  L 114.44 169.00
  Q 112.22 168.63 110.07 168.01
  Q 89.78 162.20 72.18 150.57
  Q 44.59 132.36 24.19 102.81
  Q 10.41 82.87 5.00 61.50
  Q 3.48 55.48 2.98 47.66
  Q 2.45 39.17 4.40 34.56
  Q 6.77 28.98 12.17 25.48
  Q 15.57 23.28 15.62 23.24
  Q 22.52 18.38 29.68 13.90
  Q 33.70 11.38 36.93 10.95
  Q 47.41 9.56 52.61 19.94
  Q 59.31 33.30 66.39 46.45
  Q 73.68 60.01 61.66 68.94
  Q 57.30 72.18 52.54 75.98
  A 0.66 0.65 56.5 0 0 52.38 76.81
  Q 67.64 104.37 95.63 120.52
  A 0.88 0.86 32.5 0 0 96.76 120.28
  Q 101.68 113.49 106.81 107.81
  Q 110.54 103.69 115.98 103.66
  Q 119.40 103.64 124.97 106.40
  Q 134.25 110.99 152.31 120.44
  Q 163.12 126.09 161.24 136.40
  Q 160.58 140.06 156.84 145.89
  Q 151.97 153.49 147.06 161.06
  Q 143.21 167.01 137.94 169.00
  Z
  M 150.56 129.19
  Q 146.07 126.31 121.07 113.78
  Q 118.08 112.29 116.78 112.14
  Q 114.10 111.83 112.19 113.94
  Q 110.09 116.24 101.48 127.79
  Q 100.00 129.77 99.09 130.28
  Q 97.34 131.24 95.31 130.19
  Q 60.99 112.35 43.27 77.60
  Q 42.34 75.78 42.54 74.62
  Q 42.81 73.04 44.31 71.81
  Q 50.86 66.47 57.61 61.37
  Q 62.50 57.68 59.62 52.16
  Q 51.97 37.51 44.39 22.83
  Q 42.61 19.38 39.35 19.20
  Q 37.28 19.09 34.17 21.09
  Q 25.44 26.72 16.94 32.69
  Q 13.90 34.82 12.40 37.50
  Q 11.16 39.72 11.28 43.72
  Q 11.64 56.05 15.81 67.73
  Q 23.95 90.51 39.18 109.30
  Q 51.09 124.00 67.19 136.56
  Q 83.76 149.50 102.56 156.72
  Q 109.31 159.31 115.66 160.58
  Q 122.37 161.93 129.25 162.32
  Q 135.95 162.70 140.06 156.56
  Q 145.88 147.88 151.38 138.98
  Q 153.20 136.03 153.29 134.19
  Q 153.43 131.03 150.56 129.19
  Z"
/>
<circle fill="#000000" cx="107.96" cy="39.24" r="7.23"/>
<circle fill="#000000" cx="129.07" cy="39.25" r="7.25"/>
<circle fill="#000000" cx="150.41" cy="39.25" r="7.24"/>
</svg>
