<?xml version="1.0" encoding="UTF-8" standalone="no"?>
<!DOCTYPE svg PUBLIC "-//W3C//DTD SVG 1.1//EN" "http://www.w3.org/Graphics/SVG/1.1/DTD/svg11.dtd">
<svg xmlns="http://www.w3.org/2000/svg" version="1.1" viewBox="0 0 222 227" width="24px" height="25px">
<path fill="#ffffff" d="
  M 72.31 145.69
  Q 135.02 145.81 197.82 145.73
  A 0.49 0.49 0.0 0 1 198.31 146.23
  L 198.22 166.97
  A 0.44 0.44 0.0 0 1 197.78 167.41
  Q 125.06 167.97 67.50 167.48
  C 54.23 167.36 43.78 155.47 46.10 142.36
  Q 46.92 137.77 52.97 126.85
  Q 57.91 117.94 62.78 108.97
  A 1.05 1.05 0.0 0 0 62.80 108.02
  L 23.92 25.97
  A 0.82 0.82 0.0 0 0 23.18 25.50
  L 2.35 25.50
  A 0.40 0.39 -90.0 0 1 1.96 25.10
  L 2.01 4.42
  A 0.44 0.44 0.0 0 1 2.45 3.98
  L 37.25 4.01
  A 0.70 0.68 -11.8 0 1 37.88 4.41
  L 47.54 25.00
  A 0.87 0.85 -12.4 0 0 48.32 25.49
  Q 125.05 25.51 201.74 25.56
  C 206.31 25.56 211.76 25.31 215.50 27.93
  C 222.66 32.96 220.13 39.70 216.38 46.48
  Q 200.43 75.36 184.51 104.26
  C 177.04 117.83 173.55 123.59 156.65 123.75
  Q 118.30 124.10 79.94 123.94
  A 0.84 0.84 0.0 0 0 79.20 124.38
  Q 74.74 132.40 70.33 140.44
  C 69.10 142.67 69.08 145.68 72.31 145.69
  Z"
/>
<circle fill="#ffffff" cx="67.47" cy="200.32" r="21.65"/>
<circle fill="#ffffff" cx="176.62" cy="200.33" r="21.64"/>
</svg>
