<?xml version="1.0" encoding="UTF-8" standalone="no"?>
<!DOCTYPE svg PUBLIC "-//W3C//DTD SVG 1.1//EN" "http://www.w3.org/Graphics/SVG/1.1/DTD/svg11.dtd">
<svg xmlns="http://www.w3.org/2000/svg" version="1.1" viewBox="0 0 322 326">
<g stroke-width="2.00" fill="none" stroke-linecap="butt">
</g>
<path fill="#000000" d="
  M 165.89 31.16
  A 0.44 0.43 -44.7 0 0 166.62 31.16
  Q 171.27 24.13 177.10 18.57
  Q 183.31 12.65 190.33 9.21
  Q 202.72 3.14 216.75 4.25
  Q 238.70 5.99 252.69 21.56
  Q 265.69 36.05 268.04 55.50
  Q 270.00 71.76 264.69 85.94
  Q 261.12 95.46 253.94 105.69
  Q 243.60 120.41 225.57 136.09
  Q 213.14 146.89 178.56 176.31
  Q 175.26 179.12 173.22 180.78
  Q 170.02 183.36 167.36 183.79
  Q 163.50 184.41 160.56 181.94
  Q 141.92 166.22 123.36 150.40
  Q 108.54 137.76 94.59 124.16
  Q 82.85 112.72 74.19 98.81
  Q 65.45 84.77 64.34 68.24
  Q 62.69 43.84 76.57 25.66
  Q 82.86 17.41 91.15 12.14
  Q 105.91 2.76 123.75 4.25
  Q 142.30 5.80 155.61 18.64
  Q 161.60 24.41 165.89 31.16
  Z
  M 162.12 62.02
  Q 159.10 60.58 158.00 57.75
  Q 155.87 52.25 153.32 46.94
  Q 149.80 39.59 144.30 33.86
  Q 138.53 27.84 132.05 25.22
  Q 124.90 22.34 116.75 23.00
  Q 104.70 23.97 95.81 32.06
  Q 87.10 39.99 84.09 52.52
  Q 81.89 61.66 83.23 70.65
  Q 84.30 77.81 88.11 85.41
  Q 91.63 92.43 96.69 98.56
  Q 105.16 108.84 111.56 114.69
  Q 138.15 138.94 165.74 161.65
  A 0.90 0.89 44.7 0 0 166.89 161.65
  Q 183.68 147.58 199.83 133.85
  Q 215.82 120.25 230.20 104.96
  Q 237.70 96.98 242.56 88.81
  Q 254.20 69.27 247.45 49.20
  Q 243.97 38.87 237.08 32.37
  Q 228.75 24.52 216.99 23.19
  Q 208.80 22.26 201.73 24.77
  Q 194.18 27.45 188.50 33.50
  Q 180.35 42.18 176.15 53.71
  Q 174.54 58.12 173.81 59.06
  Q 171.33 62.27 167.66 62.86
  Q 164.84 63.31 162.12 62.02
  Z"
/>
<path fill="#000000" d="
  M 70.13 315.29
  Q 65.79 320.08 59.70 322.28
  Q 55.68 323.73 47.60 323.87
  Q 30.68 324.15 13.75 324.00
  Q 2.08 323.90 2.07 312.75
  Q 2.00 259.75 2.00 206.75
  Q 2.00 202.13 2.71 199.56
  Q 3.58 196.38 5.99 194.59
  Q 7.78 193.26 11.35 193.20
  Q 28.49 192.89 45.64 192.96
  Q 55.28 192.99 59.65 194.56
  Q 67.37 197.31 72.72 204.39
  A 0.62 0.61 -38.0 0 0 73.60 204.49
  Q 84.97 195.06 98.68 191.37
  Q 108.22 188.81 118.49 189.27
  Q 141.14 190.28 159.56 205.69
  Q 166.91 211.83 177.50 211.71
  Q 191.25 211.56 205.00 211.52
  Q 221.04 211.47 224.93 212.34
  Q 239.17 215.55 245.56 230.55
  A 0.33 0.32 -34.7 0 0 246.10 230.64
  Q 257.07 219.45 267.59 207.84
  Q 270.32 204.82 273.23 201.98
  Q 276.71 198.59 279.52 196.88
  Q 288.17 191.63 297.75 193.25
  Q 313.08 195.85 319.50 209.75
  Q 321.06 213.13 321.07 217.04
  Q 321.08 220.36 321.08 220.47
  Q 321.31 226.71 320.50 229.75
  Q 319.43 233.75 315.52 238.83
  Q 313.46 241.51 313.41 241.57
  Q 294.74 266.67 275.85 291.60
  Q 267.55 302.56 262.92 306.78
  Q 250.15 318.43 233.14 322.26
  Q 226.60 323.73 214.23 323.84
  Q 182.49 324.12 150.74 324.03
  Q 133.56 323.99 130.74 323.90
  Q 101.68 322.98 72.25 314.68
  A 2.10 2.10 28.9 0 0 70.13 315.29
  Z
  M 143.79 261.91
  Q 141.26 256.18 145.98 251.70
  Q 147.65 250.12 149.93 249.51
  Q 152.15 248.92 154.50 248.93
  Q 184.84 249.00 215.19 249.00
  Q 220.42 249.00 222.68 248.06
  Q 226.93 246.30 227.82 241.76
  Q 228.66 237.50 226.37 234.09
  Q 223.78 230.22 218.50 230.25
  Q 181.03 230.48 172.00 230.00
  Q 162.45 229.49 153.61 224.28
  Q 152.58 223.67 145.38 218.09
  Q 130.56 206.60 111.50 208.00
  Q 102.48 208.66 94.01 213.11
  Q 90.35 215.03 85.98 218.55
  Q 82.28 221.52 78.58 224.88
  A 1.23 1.21 68.8 0 0 78.18 225.81
  Q 78.28 235.06 78.26 243.74
  Q 78.26 245.15 78.06 248.75
  Q 77.92 251.26 78.00 253.76
  Q 78.25 261.19 78.25 261.24
  Q 78.25 278.54 78.25 296.26
  A 0.70 0.70 8.4 0 0 78.75 296.93
  Q 107.82 305.46 137.84 305.11
  Q 147.09 305.00 147.17 305.00
  Q 180.44 305.00 213.71 305.00
  Q 225.11 305.00 230.66 303.58
  Q 240.02 301.17 247.63 295.25
  Q 252.11 291.77 258.70 283.14
  Q 279.53 255.87 299.95 228.28
  Q 302.24 225.19 302.78 223.24
  Q 303.67 220.03 302.39 217.21
  Q 300.70 213.47 296.56 211.95
  Q 291.35 210.04 286.81 214.81
  Q 277.31 224.79 246.92 257.67
  Q 237.73 267.61 224.00 267.79
  Q 190.64 268.23 157.28 267.77
  Q 157.22 267.77 154.23 267.89
  Q 151.18 268.01 148.54 266.81
  Q 145.30 265.35 143.79 261.91
  Z
  M 55.56 213.44
  Q 52.35 211.22 48.24 211.39
  Q 45.81 211.50 45.76 211.50
  Q 33.64 211.50 21.85 211.50
  A 0.85 0.84 -0.0 0 0 21.00 212.34
  L 21.06 304.44
  A 0.50 0.50 -45.0 0 0 21.56 304.94
  Q 32.94 305.03 44.32 305.01
  Q 51.28 305.00 51.66 304.94
  Q 56.00 304.28 58.12 300.61
  Q 59.50 298.21 59.50 293.12
  Q 59.50 257.18 59.48 221.25
  Q 59.47 216.14 55.56 213.44
  Z"
/>
</svg>
