<?xml version="1.0" encoding="UTF-8" standalone="no"?>
<!DOCTYPE svg PUBLIC "-//W3C//DTD SVG 1.1//EN" "http://www.w3.org/Graphics/SVG/1.1/DTD/svg11.dtd">
<svg xmlns="http://www.w3.org/2000/svg" version="1.1" viewBox="0 0 325 229">
<path fill="#000000" d="
  M 321.99 198.94
  A 28.56 28.56 0.0 0 1 293.43 227.50
  L 30.57 227.50
  A 28.56 28.56 0.0 0 1 2.01 198.94
  L 2.01 31.06
  A 28.56 28.56 0.0 0 1 30.57 2.50
  L 293.43 2.50
  A 28.56 28.56 0.0 0 1 321.99 31.06
  L 321.99 198.94
  Z
  M 185.20 125.32
  C 219.76 91.70 253.76 57.38 287.85 23.28
  C 288.54 22.59 291.54 20.57 287.74 20.91
  C 281.56 21.48 271.89 21.04 259.00 21.00
  Q 176.83 20.74 57.59 21.23
  C 51.46 21.25 42.82 20.85 35.20 21.04
  Q 33.94 21.07 34.83 21.96
  C 68.89 55.97 103.27 89.56 136.91 123.70
  C 147.62 134.56 159.60 141.34 174.31 133.91
  Q 178.60 131.74 185.20 125.32
  Z
  M 21.53 35.45
  A 0.31 0.31 -56.2 0 0 21.00 35.67
  L 21.00 194.33
  A 0.31 0.31 67.6 0 0 21.53 194.55
  L 101.62 115.22
  A 0.31 0.31 -44.8 0 0 101.62 114.78
  L 21.53 35.45
  Z
  M 222.69 115.44
  C 249.19 141.95 275.89 168.44 302.59 194.84
  Q 302.94 195.19 302.94 194.68
  L 303.00 35.53
  Q 303.00 34.63 302.36 35.27
  L 222.69 114.68
  A 0.54 0.54 0.0 0 0 222.69 115.44
  Z
  M 289.55 208.55
  C 262.53 180.76 236.39 155.37 209.55 128.93
  A 0.96 0.95 44.4 0 0 208.19 128.94
  C 201.45 135.82 193.72 144.30 186.28 148.88
  C 167.47 160.46 143.79 156.86 128.19 141.30
  Q 122.12 135.25 115.74 128.87
  A 0.87 0.86 44.8 0 0 114.51 128.87
  L 34.54 208.46
  Q 34.00 209.00 34.77 209.00
  L 289.36 209.00
  Q 289.99 209.00 289.55 208.55
  Z"
/>
</svg>
