<svg width="44" height="44" viewBox="0 0 44 44" fill="black" xmlns="http://www.w3.org/2000/svg">
<path d="M18.6326 15.5077V19.7775H15.2158V24.8959H18.6326V36.8477H23.7509V24.9004H28.8738V19.782H23.7554V16.3653C23.7554 15.3416 24.4379 14.6592 25.4615 14.6592H28.8783V9.53632H24.604C21.3624 9.53632 18.6326 12.2661 18.6326 15.5077Z" fill="black"/>
<path d="M22 0C9.9 0 0 9.9 0 22C0 34.0955 9.9 44 22 44C34.1 44 44 34.1 44 22C44 9.9 34.1 0 22 0ZM22 42.1682C10.9057 42.1682 1.83184 33.0898 1.83184 22C1.83184 10.9102 10.9057 1.83184 22 1.83184C33.0943 1.83184 42.1682 10.9102 42.1682 22C42.1682 33.0898 33.0943 42.1682 22 42.1682Z" fill="black"/>
</svg>
