<?xml version="1.0" encoding="UTF-8" standalone="no"?>
<!DOCTYPE svg PUBLIC "-//W3C//DTD SVG 1.1//EN" "http://www.w3.org/Graphics/SVG/1.1/DTD/svg11.dtd">
<svg xmlns="http://www.w3.org/2000/svg" version="1.1" viewBox="0 0 280 200">

<path fill="#010101" d="
  M 118.06 0.00
  L 162.06 0.00
  Q 168.47 2.95 167.60 11.73
  Q 167.41 13.75 169.44 13.74
  Q 187.92 13.59 207.53 13.91
  Q 214.84 14.03 217.85 15.13
  Q 223.17 17.07 226.21 22.04
  Q 227.50 24.14 227.62 27.28
  Q 227.83 32.67 227.80 38.06
  Q 227.76 45.11 227.70 45.43
  Q 226.77 50.01 220.98 50.50
  Q 218.90 50.68 216.81 50.79
  A 0.70 0.70 7.0 0 0 216.17 51.29
  Q 207.27 82.32 198.49 113.38
  Q 197.75 116.00 198.02 118.71
  Q 201.07 148.86 204.22 179.00
  Q 204.91 185.55 203.88 188.94
  Q 201.41 197.04 192.44 200.00
  L 87.44 200.00
  Q 78.62 197.01 76.14 189.00
  Q 75.10 185.68 75.74 179.43
  Q 78.95 148.15 82.15 117.68
  Q 82.36 115.74 81.81 113.85
  L 63.82 51.29
  A 0.68 0.68 -6.4 0 0 63.19 50.79
  Q 61.10 50.69 59.01 50.54
  Q 53.56 50.15 52.47 45.98
  Q 52.29 45.29 52.23 38.99
  Q 52.19 34.00 52.01 29.01
  Q 51.75 21.84 57.31 17.81
  Q 60.06 15.82 63.45 14.78
  Q 65.91 14.01 70.15 13.94
  Q 90.98 13.58 110.76 13.74
  A 1.65 1.64 -2.8 0 0 112.41 11.93
  Q 111.44 3.03 118.06 0.00
  Z
  M 159.00 8.85
  A 0.60 0.60 0.0 0 0 158.40 8.25
  L 121.60 8.25
  A 0.60 0.60 0.0 0 0 121.00 8.85
  L 121.00 13.15
  A 0.60 0.60 0.0 0 0 121.60 13.75
  L 158.40 13.75
  A 0.60 0.60 0.0 0 0 159.00 13.15
  L 159.00 8.85
  Z
  M 217.09 25.12
  Q 212.92 22.45 208.25 22.65
  Q 205.81 22.75 205.74 22.75
  Q 140.87 22.75 76.00 22.54
  Q 69.36 22.51 67.50 23.00
  Q 64.45 23.80 62.23 25.67
  Q 61.00 26.71 61.00 28.32
  L 61.00 40.81
  A 0.69 0.69 -45.0 0 0 61.69 41.50
  L 218.44 41.50
  A 0.56 0.56 0.0 0 0 219.00 40.94
  L 219.00 28.60
  Q 219.00 26.34 217.09 25.12
  Z
  M 87.71 190.03
  Q 90.26 191.75 94.00 191.75
  Q 140.25 191.75 186.50 191.77
  Q 192.47 191.77 194.76 187.31
  Q 195.83 185.24 195.43 181.53
  Q 191.99 149.40 188.89 117.24
  Q 188.63 114.50 189.94 109.94
  Q 198.20 81.09 206.74 51.41
  A 0.52 0.51 -81.9 0 0 206.25 50.75
  L 73.56 50.81
  A 0.37 0.37 -7.1 0 0 73.20 51.29
  Q 81.52 80.01 89.73 108.75
  Q 89.74 108.82 90.47 111.10
  Q 91.51 114.40 91.25 117.25
  Q 89.33 137.94 84.57 181.46
  Q 84.22 184.67 84.69 186.14
  Q 85.44 188.51 87.71 190.03
  Z"
/>
<path fill="#010101" d="
  M 109.58 141.66
  Q 110.23 142.75 110.45 141.55
  L 114.90 117.04
  Q 115.21 115.32 114.71 113.67
  Q 108.79 94.42 103.19 75.81
  Q 102.38 73.13 104.28 71.52
  Q 105.85 70.19 107.99 70.37
  Q 111.20 70.65 112.25 74.50
  Q 113.84 80.30 123.75 112.00
  Q 124.79 115.32 123.88 119.34
  Q 122.64 124.76 122.63 124.88
  Q 121.29 133.28 119.52 141.76
  Q 118.96 144.43 120.67 142.30
  Q 121.87 140.80 123.22 139.97
  Q 124.63 139.10 126.44 139.32
  Q 130.33 139.79 130.13 143.40
  Q 130.02 145.37 128.07 147.38
  Q 122.05 153.59 115.44 159.19
  Q 113.08 161.20 110.79 160.17
  Q 109.41 159.54 107.97 157.12
  Q 103.97 150.37 100.34 143.42
  Q 98.97 140.79 99.15 139.23
  Q 99.47 136.57 102.70 135.68
  Q 105.57 134.89 106.87 137.09
  L 109.58 141.66
  Z"
/>
<path fill="#010101" d="
  M 160.37 142.44
  Q 158.53 129.88 156.50 120.50
  Q 155.97 118.03 155.83 115.88
  Q 155.71 113.89 156.50 111.33
  Q 162.12 93.11 167.68 74.86
  Q 168.42 72.43 169.43 71.46
  Q 171.13 69.81 173.49 70.43
  Q 175.68 71.00 176.48 72.77
  Q 177.30 74.56 176.50 77.00
  Q 173.85 85.07 165.45 113.29
  Q 164.81 115.44 165.22 117.63
  Q 167.46 129.87 169.47 141.10
  Q 169.89 143.45 170.69 141.20
  Q 171.49 138.91 173.08 137.27
  Q 174.77 135.51 177.06 135.70
  Q 180.32 135.96 180.75 139.22
  Q 180.99 141.06 179.66 143.50
  Q 173.56 154.66 171.75 157.75
  Q 169.79 161.10 166.85 160.34
  Q 165.40 159.96 162.90 157.70
  Q 157.16 152.52 151.56 147.19
  Q 149.84 145.55 149.79 143.58
  Q 149.75 141.73 151.09 140.36
  Q 152.53 138.88 154.74 139.15
  Q 156.10 139.31 157.73 140.72
  Q 158.87 141.71 160.05 142.64
  Q 160.44 142.94 160.37 142.44
  Z"
/>
<path fill="#010101" d="
  M 0.00 128.44
  L 0.00 102.69
  Q 2.09 98.52 6.09 97.65
  Q 6.78 97.50 13.43 97.50
  Q 24.02 97.50 34.92 97.50
  A 0.59 0.58 -86.1 0 0 35.50 96.99
  Q 35.88 93.86 35.64 91.26
  Q 35.38 88.49 36.83 86.57
  Q 38.20 84.75 40.64 84.20
  Q 43.16 83.64 45.33 84.99
  Q 45.34 84.99 48.80 87.89
  Q 70.03 105.63 75.44 110.56
  Q 78.65 113.49 77.59 116.98
  Q 76.97 119.01 73.89 121.68
  Q 60.73 133.07 47.33 144.17
  Q 44.42 146.58 42.60 146.88
  Q 39.46 147.39 37.00 144.50
  Q 35.18 142.37 35.75 139.25
  Q 36.05 137.58 35.40 133.93
  A 0.59 0.57 -5.1 0 0 34.81 133.45
  Q 12.61 133.87 6.50 133.25
  Q 2.20 132.81 0.00 128.44
  Z
  M 44.62 133.80
  Q 44.58 133.99 44.66 134.15
  A 0.51 0.38 -35.0 0 0 45.38 134.17
  L 66.80 115.76
  A 0.43 0.42 -44.9 0 0 66.81 115.11
  L 46.06 97.56
  Q 44.03 95.85 44.37 98.50
  Q 45.20 105.02 41.18 106.27
  Q 40.41 106.51 34.29 106.47
  Q 21.74 106.40 9.19 106.68
  A 0.53 0.50 -0.6 0 0 8.67 107.18
  L 8.51 123.70
  A 0.56 0.55 -0.0 0 0 9.07 124.25
  Q 24.00 124.25 39.00 124.32
  Q 45.29 124.34 44.50 130.75
  Q 44.34 132.00 44.66 133.19
  Q 44.71 133.38 44.62 133.80
  Z"
/>
<path fill="#010101" d="
  M 245.06 97.44
  Q 258.66 97.55 272.25 97.53
  Q 275.41 97.52 277.48 99.39
  Q 278.97 100.73 279.27 103.66
  Q 280.47 115.44 279.26 127.22
  Q 278.97 130.05 277.69 131.37
  Q 275.97 133.16 273.25 133.25
  Q 259.16 133.72 245.03 133.44
  A 0.55 0.54 2.8 0 0 244.47 133.94
  Q 244.18 137.28 244.09 140.25
  Q 243.91 146.48 238.48 146.81
  Q 236.62 146.92 234.77 145.80
  Q 233.07 144.77 231.55 143.45
  Q 219.65 133.14 207.59 123.01
  Q 203.58 119.65 202.71 117.75
  Q 200.84 113.62 205.32 109.83
  Q 218.13 98.99 230.91 88.11
  Q 234.42 85.12 236.04 84.48
  Q 239.95 82.92 242.80 86.28
  Q 244.19 87.91 244.35 90.77
  Q 244.53 93.85 244.56 96.94
  A 0.50 0.50 -45.0 0 0 245.06 97.44
  Z
  M 236.81 105.07
  Q 235.01 103.14 235.68 99.18
  Q 236.30 95.55 233.51 97.92
  L 213.15 115.17
  A 0.39 0.38 -45.4 0 0 213.15 115.76
  L 234.13 133.47
  Q 235.94 134.99 235.62 132.64
  Q 234.68 125.67 239.11 124.43
  Q 239.76 124.25 246.41 124.25
  Q 258.42 124.25 270.94 124.25
  A 0.56 0.56 0.0 0 0 271.50 123.69
  L 271.50 107.01
  A 0.52 0.51 0.0 0 0 270.98 106.50
  Q 256.16 106.54 241.74 106.46
  Q 238.09 106.43 236.81 105.07
  Z"
/>
</svg>
