<?xml version="1.0" encoding="UTF-8" standalone="no"?>
<!DOCTYPE svg PUBLIC "-//W3C//DTD SVG 1.1//EN" "http://www.w3.org/Graphics/SVG/1.1/DTD/svg11.dtd">
<svg xmlns="http://www.w3.org/2000/svg" version="1.1" viewBox="0 0 326 322">
<path fill="#000000" d="
  M 267.19 322.00
  L 40.19 322.00
  L 39.94 259.06
  A 0.94 0.94 -74.2 0 0 39.51 258.29
  Q 9.11 238.61 3.95 203.95
  Q 3.00 197.58 3.00 184.00
  Q 3.00 147.63 3.00 111.26
  Q 3.00 96.41 4.45 91.38
  Q 9.01 75.50 27.75 71.75
  Q 32.31 70.84 39.46 73.04
  A 0.37 0.36 7.7 0 0 39.93 72.69
  Q 39.79 67.01 40.21 61.36
  Q 40.68 54.86 42.80 50.51
  Q 48.12 39.56 60.07 35.96
  Q 64.15 34.72 68.05 34.78
  Q 72.24 34.83 76.12 36.12
  A 0.70 0.69 -83.1 0 0 77.03 35.40
  Q 76.28 26.07 80.23 18.68
  Q 84.03 11.54 91.81 7.41
  Q 106.44 -0.37 122.72 10.59
  A 0.74 0.73 -46.2 0 0 123.57 10.57
  Q 134.16 2.86 145.44 4.48
  Q 153.39 5.63 159.48 10.78
  Q 165.43 15.82 168.15 23.71
  A 0.54 0.54 72.5 0 0 168.80 24.05
  Q 186.16 19.22 197.77 30.62
  Q 202.06 34.84 203.99 39.76
  Q 205.97 44.83 206.01 50.91
  A 0.65 0.65 -8.8 0 0 206.86 51.53
  Q 215.98 48.69 224.26 51.72
  Q 237.00 56.39 241.68 69.50
  A 1.06 1.05 -17.9 0 0 242.98 70.16
  Q 250.60 67.84 257.67 69.27
  Q 264.65 70.68 270.36 75.58
  Q 276.54 80.88 278.78 88.77
  Q 280.00 93.05 279.99 103.84
  Q 279.96 139.51 280.06 175.18
  A 0.32 0.30 77.2 0 0 280.50 175.47
  Q 295.84 167.80 308.85 175.51
  Q 315.93 179.71 319.67 186.45
  Q 323.69 193.72 322.75 202.25
  Q 321.31 215.36 310.56 222.82
  Q 305.69 226.20 300.81 229.56
  Q 292.44 235.34 286.25 243.34
  Q 286.23 243.36 283.22 247.59
  Q 277.31 255.92 268.56 262.40
  A 2.63 2.63 -18.4 0 0 267.50 264.51
  Q 267.50 292.25 267.50 320.25
  Q 267.50 321.52 267.19 322.00
  Z
  M 77.07 103.44
  Q 77.12 83.66 76.80 63.89
  Q 76.74 60.52 75.91 58.77
  Q 74.66 56.16 72.19 54.81
  Q 65.94 51.40 60.96 56.71
  Q 58.75 59.08 58.75 62.75
  Q 58.75 107.47 58.75 152.20
  Q 58.75 162.74 60.08 168.69
  Q 65.85 194.50 90.23 207.48
  Q 92.62 208.76 94.99 210.07
  A 0.85 0.85 15.1 0 1 95.44 210.82
  L 95.56 304.68
  A 0.50 0.50 -45.0 0 0 96.06 305.18
  L 174.57 305.07
  A 0.68 0.67 0.0 0 0 175.25 304.40
  L 175.25 206.73
  A 1.64 1.62 -12.0 0 1 176.23 205.24
  Q 183.83 201.91 189.61 196.12
  Q 190.65 195.08 197.25 186.36
  Q 205.71 175.17 217.53 167.29
  Q 225.21 162.16 226.69 160.94
  Q 230.47 157.80 230.41 153.57
  Q 230.36 149.64 227.37 146.76
  Q 224.17 143.66 219.63 144.58
  Q 217.13 145.08 212.95 147.96
  Q 200.56 156.50 187.92 165.12
  Q 187.50 165.41 187.50 164.89
  Q 187.47 108.72 187.26 53.14
  Q 187.25 48.12 185.88 45.62
  Q 183.29 40.87 177.72 41.46
  Q 173.50 41.91 171.37 44.89
  Q 169.25 47.86 169.25 52.50
  Q 169.25 77.87 169.25 103.31
  A 0.69 0.69 -45.0 0 1 168.56 104.00
  L 151.35 104.00
  A 0.85 0.85 -45.0 0 1 150.50 103.15
  Q 150.50 67.50 150.50 31.50
  Q 150.50 28.36 148.34 25.94
  Q 146.51 23.88 143.45 23.24
  Q 136.94 21.88 133.79 27.33
  Q 132.51 29.55 132.47 33.44
  Q 132.21 63.38 132.25 94.08
  A 0.67 0.67 -90.0 0 1 131.58 94.75
  L 114.25 94.75
  A 0.50 0.50 45.0 0 1 113.75 94.25
  Q 113.75 64.50 113.75 34.75
  Q 113.75 30.95 113.23 29.30
  Q 112.32 26.38 109.96 24.66
  Q 106.75 22.32 102.66 23.12
  Q 99.09 23.83 97.05 26.89
  Q 95.76 28.84 95.72 32.42
  Q 95.32 67.61 95.50 103.42
  A 0.57 0.57 89.5 0 1 94.93 104.00
  L 77.55 103.94
  A 0.49 0.48 -89.4 0 1 77.07 103.44
  Z
  M 220.81 70.94
  Q 215.67 67.31 210.93 70.04
  Q 208.01 71.72 206.90 75.06
  Q 205.95 77.96 206.00 81.75
  Q 206.34 105.62 206.01 129.01
  A 0.56 0.56 -13.9 0 0 206.84 129.51
  Q 214.81 125.17 223.74 125.52
  A 0.49 0.49 1.1 0 0 224.25 125.03
  Q 224.25 101.50 224.29 78.25
  Q 224.30 73.40 220.81 70.94
  Z
  M 261.31 210.93
  Q 261.27 154.65 261.01 98.38
  Q 261.00 94.79 260.44 93.19
  Q 259.48 90.42 257.12 88.89
  Q 253.97 86.86 250.10 87.70
  Q 246.85 88.40 244.90 91.12
  Q 243.51 93.06 243.23 96.72
  Q 242.87 101.35 242.90 106.00
  Q 243.00 120.63 243.00 135.22
  A 1.97 1.94 28.2 0 0 243.34 136.32
  Q 248.94 144.37 249.06 153.32
  Q 249.16 160.88 245.26 167.59
  Q 241.35 174.31 234.44 178.44
  Q 224.12 184.59 216.30 192.83
  Q 214.91 194.29 209.35 201.71
  Q 203.02 210.16 194.21 216.80
  A 1.13 1.13 -18.3 0 0 193.75 217.71
  L 193.75 304.54
  A 0.64 0.64 -0.4 0 0 194.40 305.18
  L 248.24 305.01
  A 0.53 0.53 45.0 0 0 248.76 304.49
  L 249.03 252.73
  A 1.30 1.29 -12.6 0 1 249.78 251.56
  Q 261.49 245.98 268.33 236.30
  Q 271.40 231.95 271.42 231.93
  Q 281.23 219.32 294.89 210.86
  Q 301.17 206.96 302.19 205.44
  Q 304.79 201.53 303.89 197.55
  Q 303.03 193.76 299.48 191.70
  Q 294.24 188.66 288.25 193.00
  Q 283.77 196.25 261.73 211.16
  Q 261.31 211.44 261.31 210.93
  Z
  M 58.69 247.57
  L 58.93 304.55
  A 0.51 0.51 -0.4 0 0 59.44 305.06
  L 76.48 305.00
  A 0.52 0.51 0.0 0 0 77.00 304.49
  L 77.00 222.61
  A 1.53 1.53 -74.0 0 0 76.28 221.31
  Q 50.64 205.08 42.63 176.30
  Q 40.68 169.30 40.30 160.40
  Q 40.00 153.48 40.00 144.25
  Q 40.00 122.75 40.00 101.25
  Q 40.00 97.13 38.06 94.30
  Q 36.10 91.41 32.45 90.62
  Q 27.45 89.55 23.81 93.81
  Q 21.67 96.32 21.86 100.08
  Q 21.99 102.83 21.99 102.92
  Q 21.62 149.16 22.18 195.39
  Q 22.26 202.19 23.52 206.97
  Q 30.88 234.97 58.23 246.86
  A 0.80 0.77 -79.1 0 1 58.69 247.57
  Z"
/>
</svg>
