<svg width="44" height="44" viewBox="0 0 44 44" fill="black" xmlns="http://www.w3.org/2000/svg">
<path d="M22.0001 0C16.0252 0 15.276 0.0253473 12.9294 0.132369C10.5878 0.239194 8.98853 0.611151 7.58912 1.15491C6.14243 1.71713 4.91554 2.46943 3.69252 3.69245C2.46943 4.91547 1.71713 6.14249 1.15497 7.58919C0.611086 8.98853 0.23926 10.5878 0.132304 12.9294C0.0252818 15.276 0 16.0252 0 22.0001C0 27.9748 0.0252818 28.724 0.132304 31.0706C0.23926 33.4122 0.611086 35.0115 1.15497 36.4108C1.7172 37.8575 2.46949 39.0844 3.69252 40.3075C4.9156 41.5306 6.14243 42.2829 7.58912 42.8451C8.98853 43.3888 10.5878 43.7607 12.9294 43.8676C15.276 43.9747 16.0252 44 22.0001 44C27.9748 44 28.724 43.9747 31.0706 43.8676C33.4122 43.7608 35.0115 43.3888 36.4108 42.8451C37.8575 42.2829 39.0844 41.5306 40.3075 40.3075C41.5306 39.0844 42.2829 37.8575 42.8451 36.4108C43.3888 35.0115 43.7608 33.4122 43.8676 31.0706C43.9747 28.724 44 27.9748 44 22.0001C44 16.0252 43.9747 15.276 43.8676 12.9294C43.7608 10.5878 43.3888 8.98853 42.8451 7.58919C42.2829 6.14249 41.5306 4.91547 40.3075 3.69245C39.0844 2.46943 37.8575 1.71713 36.4108 1.15491C35.0115 0.611151 33.4122 0.239194 31.0706 0.132369C28.724 0.0253473 27.9748 0 22.0001 0ZM22.0001 3.96393C27.8742 3.96393 28.5701 3.9864 30.8899 4.09224C33.0349 4.19003 34.1998 4.54843 34.9749 4.84971C36.0019 5.24885 36.7348 5.72554 37.5045 6.49539C38.2745 7.26524 38.7511 7.99815 39.1503 9.02501C39.4516 9.80023 39.81 10.9652 39.9078 13.1101C40.0136 15.4299 40.0361 16.1258 40.0361 22C40.0361 27.8742 40.0136 28.5701 39.9078 30.8899C39.81 33.0349 39.4516 34.1998 39.1503 34.9749C38.7511 36.0019 38.2745 36.7348 37.5045 37.5045C36.7348 38.2745 36.0018 38.7511 34.975 39.1503C34.1998 39.4516 33.0348 39.81 30.8899 39.9078C28.5704 40.0136 27.8747 40.0361 22 40.0361C16.1253 40.0361 15.4297 40.0136 13.1101 39.9077C10.9651 39.81 9.80023 39.4516 9.02507 39.1503C7.99808 38.7511 7.26524 38.2745 6.49545 37.5045C5.7256 36.7348 5.24885 36.0018 4.84971 34.975C4.54843 34.1998 4.1901 33.0348 4.09224 30.8899C3.9864 28.5701 3.96393 27.8742 3.96393 22C3.96393 16.1258 3.9864 15.4299 4.09224 13.1101C4.1901 10.9651 4.54843 9.80023 4.84971 9.02507C5.24885 7.99808 5.7256 7.26524 6.49539 6.49545C7.26524 5.72554 7.99815 5.24885 9.02501 4.84971C9.80023 4.54843 10.9652 4.19003 13.1101 4.09224C15.4299 3.9864 16.1258 3.96393 22.0001 3.96393Z" fill="black"/>
<path d="M22 29.3333C17.9498 29.3333 14.6666 26.05 14.6666 22C14.6666 17.9498 17.9498 14.6666 22 14.6666C26.0501 14.6666 29.3333 17.9498 29.3333 22C29.3333 26.05 26.0501 29.3333 22 29.3333ZM22 10.7026C15.7606 10.7026 10.7026 15.7605 10.7026 22C10.7026 28.2393 15.7606 33.2972 22 33.2972C28.2393 33.2972 33.2972 28.2393 33.2972 22C33.2972 15.7605 28.2393 10.7026 22 10.7026ZM36.3836 10.2563C36.3836 11.7143 35.2016 12.8962 33.7436 12.8962C32.2856 12.8962 31.1036 11.7143 31.1036 10.2563C31.1036 8.79823 32.2856 7.61621 33.7436 7.61621C35.2016 7.61621 36.3836 8.79823 36.3836 10.2563Z" fill="black"/>
</svg>
