<?xml version="1.0" encoding="UTF-8" standalone="no"?>
<!DOCTYPE svg PUBLIC "-//W3C//DTD SVG 1.1//EN" "http://www.w3.org/Graphics/SVG/1.1/DTD/svg11.dtd">
<svg xmlns="http://www.w3.org/2000/svg" version="1.1" viewBox="0 0 286 285">
<path fill="#010101" d="
  M 286.00 169.56
  L 286.00 285.00
  L 157.94 285.00
  L 158.00 261.30
  A 0.56 0.55 0.0 0 0 157.44 260.75
  L 1.31 260.69
  A 0.50 0.50 45.0 0 1 0.81 260.19
  Q 0.72 240.80 0.74 221.41
  Q 0.75 211.09 2.22 206.26
  Q 5.24 196.31 13.63 190.06
  Q 17.27 187.34 24.59 184.79
  Q 46.70 177.05 68.85 169.80
  A 1.68 1.66 -9.2 0 0 70.00 168.22
  L 70.00 157.43
  A 2.10 2.08 21.8 0 0 69.34 155.91
  Q 57.93 145.28 53.46 131.41
  A 0.87 0.86 87.6 0 0 52.83 130.83
  Q 32.70 126.17 33.06 105.19
  Q 33.40 86.21 33.00 73.50
  Q 32.88 69.52 33.44 63.97
  Q 33.94 58.98 35.08 54.62
  Q 43.01 24.34 69.75 10.00
  Q 78.81 5.14 88.45 3.17
  Q 103.89 0.00 119.17 3.78
  Q 128.69 6.13 137.56 11.42
  Q 163.15 26.65 169.95 56.09
  Q 171.51 62.87 171.68 73.55
  Q 171.94 90.12 171.61 106.68
  Q 171.49 112.56 170.11 116.11
  Q 165.45 128.03 151.93 130.84
  A 0.85 0.85 -87.0 0 0 151.29 131.42
  Q 146.56 146.00 135.18 156.23
  A 1.15 1.09 -21.9 0 0 134.80 157.06
  L 134.76 168.68
  A 1.08 1.03 9.9 0 0 135.49 169.67
  L 157.46 176.99
  A 0.41 0.41 -80.8 0 0 158.00 176.60
  L 158.00 141.02
  A 0.52 0.52 -0.0 0 1 158.52 140.50
  L 256.29 140.50
  A 2.01 2.00 67.7 0 1 257.72 141.10
  L 286.00 169.56
  Z
  M 84.80 67.75
  Q 89.60 69.35 93.70 72.54
  Q 97.50 75.50 101.88 78.87
  A 0.69 0.68 45.3 0 0 102.72 78.88
  Q 107.32 75.45 111.80 72.04
  Q 117.94 67.35 125.19 66.63
  Q 132.24 65.92 138.84 69.01
  Q 148.53 73.54 152.12 84.62
  A 1.21 1.20 86.6 0 0 153.02 85.42
  Q 158.24 86.50 161.89 89.28
  Q 162.50 89.74 162.50 88.97
  Q 162.50 81.12 162.56 73.75
  Q 162.76 46.32 144.61 28.47
  Q 137.38 21.37 128.40 16.90
  Q 109.53 7.50 88.50 12.50
  Q 69.88 16.93 57.32 31.33
  Q 50.56 39.08 46.82 48.25
  Q 42.30 59.35 42.24 71.75
  Q 42.20 80.34 42.31 88.94
  Q 42.31 89.43 42.73 89.17
  Q 47.01 86.44 51.95 85.30
  A 0.92 0.90 2.2 0 0 52.60 84.71
  Q 58.42 68.12 74.93 66.67
  Q 80.17 66.20 84.80 67.75
  Z
  M 101.91 90.38
  Q 97.42 86.97 92.90 83.58
  Q 85.03 77.68 83.23 76.92
  Q 79.15 75.21 74.62 75.95
  Q 70.39 76.64 66.93 79.18
  Q 61.69 83.04 61.00 89.50
  Q 60.41 95.04 60.77 109.15
  Q 61.09 121.70 61.39 123.84
  Q 62.45 131.52 66.31 137.94
  Q 75.80 153.71 92.85 157.70
  Q 102.58 159.98 112.61 157.40
  Q 132.45 152.31 140.66 132.98
  Q 142.98 127.54 143.55 121.21
  Q 144.03 115.89 144.00 109.00
  Q 143.96 97.76 143.71 91.76
  Q 143.52 87.18 142.14 84.48
  Q 140.33 80.94 137.06 78.69
  Q 130.96 74.49 124.56 76.00
  Q 121.08 76.82 114.21 81.85
  Q 108.43 86.08 102.71 90.39
  A 0.66 0.66 45.4 0 1 101.91 90.38
  Z
  M 46.93 118.07
  Q 48.52 119.53 50.60 120.65
  A 0.61 0.61 14.4 0 0 51.50 120.12
  L 51.50 95.83
  A 0.51 0.51 76.8 0 0 50.76 95.37
  Q 45.10 98.21 43.18 103.52
  Q 41.79 107.35 42.74 111.18
  Q 43.71 115.15 46.93 118.07
  Z
  M 157.93 97.81
  Q 156.31 96.32 153.72 95.29
  A 0.34 0.34 -79.1 0 0 153.25 95.61
  L 153.25 120.29
  A 0.42 0.42 -12.0 0 0 153.84 120.67
  Q 161.62 117.12 162.22 108.75
  Q 162.68 102.16 157.93 97.81
  Z
  M 278.15 277.28
  Q 278.25 276.78 278.25 276.00
  Q 278.25 227.00 278.25 178.01
  A 0.53 0.52 0.6 0 0 277.73 177.49
  L 250.87 177.30
  A 0.65 0.63 90.0 0 1 250.24 176.65
  L 250.08 150.20
  A 0.53 0.52 90.0 0 0 249.57 149.68
  Q 224.00 149.27 198.43 149.63
  Q 193.74 149.69 183.07 149.49
  Q 175.38 149.35 167.69 149.67
  A 0.52 0.52 -1.1 0 0 167.19 150.19
  L 167.00 278.35
  A 0.90 0.90 -0.2 0 0 167.90 279.25
  L 277.43 279.19
  A 0.90 0.63 6.9 0 0 278.22 278.77
  Q 278.32 278.49 278.24 278.20
  Q 278.07 277.65 278.15 277.28
  Z
  M 270.90 167.52
  L 260.21 156.84
  Q 259.75 156.38 259.75 157.02
  L 259.80 167.19
  A 0.57 0.53 90.0 0 0 260.32 167.75
  L 270.75 167.91
  Q 271.30 167.92 270.90 167.52
  Z
  M 102.14 193.48
  A 0.54 0.53 44.6 0 0 102.89 193.48
  L 124.84 171.30
  A 1.61 1.58 72.0 0 0 125.27 170.44
  Q 125.84 166.85 125.33 163.25
  A 0.38 0.38 -16.3 0 0 124.80 162.96
  Q 103.09 172.96 79.86 162.92
  A 0.37 0.35 12.2 0 0 79.35 163.23
  L 79.43 170.50
  A 1.40 1.03 27.7 0 0 79.85 171.36
  L 102.14 193.48
  Z
  M 94.68 199.59
  L 73.86 178.60
  A 0.88 0.79 57.6 0 0 73.01 178.36
  L 66.77 180.36
  A 0.62 0.57 75.3 0 0 66.40 181.06
  L 73.20 214.95
  A 0.34 0.33 -23.5 0 0 73.73 215.15
  L 94.61 200.31
  A 0.48 0.47 -40.2 0 0 94.68 199.59
  Z
  M 121.34 188.08
  Q 115.74 193.61 109.96 199.55
  A 0.45 0.45 40.3 0 0 110.02 200.23
  L 130.81 215.08
  A 0.63 0.62 23.5 0 0 131.79 214.70
  L 138.51 181.10
  A 0.76 0.75 14.6 0 0 138.00 180.25
  L 132.05 178.27
  A 1.22 1.16 30.9 0 0 130.82 178.55
  Q 126.12 183.37 121.34 188.08
  Z
  M 66.61 230.16
  L 57.47 184.37
  A 0.80 0.79 -14.5 0 0 56.44 183.77
  Q 41.28 188.78 26.25 193.75
  Q 15.42 197.33 11.48 207.55
  Q 10.01 211.36 9.88 218.15
  Q 9.57 234.42 9.81 250.69
  A 0.51 0.50 0.0 0 0 10.32 251.19
  L 37.20 251.19
  A 0.50 0.49 -90.0 0 0 37.69 250.69
  L 37.75 224.25
  A 0.50 0.50 -45.0 0 1 38.25 223.75
  L 46.25 223.75
  A 0.50 0.50 45.0 0 1 46.75 224.25
  L 46.75 250.57
  A 0.68 0.67 90.0 0 0 47.42 251.25
  L 157.30 251.19
  A 0.71 0.70 -90.0 0 0 158.00 250.48
  L 158.00 187.74
  A 1.09 0.98 -82.5 0 0 157.30 186.72
  L 148.05 183.92
  A 0.49 0.46 -75.7 0 0 147.46 184.30
  L 138.15 230.63
  A 0.56 0.56 -66.6 0 1 137.27 230.98
  L 102.91 206.54
  A 0.73 0.72 44.5 0 0 102.08 206.54
  L 68.13 230.75
  A 0.97 0.96 -23.5 0 1 66.61 230.16
  Z"
/>
<path fill="#010101" d="
  M 286.00 41.56
  L 286.00 42.06
  L 278.40 50.30
  A 1.01 0.96 50.4 0 0 278.32 51.52
  Q 283.33 59.10 286.00 68.06
  L 286.00 92.06
  Q 277.28 122.90 247.00 130.00
  Q 239.78 131.69 231.39 130.80
  Q 223.53 129.96 216.46 126.89
  Q 202.59 120.87 194.34 108.46
  Q 188.74 100.03 186.69 90.12
  Q 183.33 73.92 190.56 58.56
  Q 197.30 44.26 210.71 36.48
  Q 219.35 31.46 229.49 30.04
  Q 252.14 26.86 271.02 43.05
  A 1.01 0.98 41.6 0 0 272.40 42.99
  L 278.82 36.03
  A 0.75 0.75 42.2 0 1 279.87 35.98
  L 286.00 41.56
  Z
  M 231.92 100.13
  L 206.39 79.57
  A 0.53 0.51 38.4 0 1 206.29 78.84
  L 211.45 72.44
  A 0.49 0.47 38.6 0 1 212.12 72.38
  L 230.94 87.49
  A 0.55 0.55 -49.3 0 0 231.69 87.43
  L 264.88 51.28
  A 0.99 0.99 -48.4 0 0 264.80 49.87
  Q 249.76 36.62 230.25 39.27
  Q 221.00 40.52 213.35 45.86
  Q 201.61 54.05 197.21 66.76
  Q 193.87 76.43 195.33 86.48
  Q 196.99 97.88 204.69 106.81
  Q 218.72 123.09 238.91 121.65
  Q 249.25 120.92 257.82 115.83
  Q 268.08 109.75 273.46 99.09
  Q 278.15 89.78 278.06 79.83
  Q 277.96 68.83 271.98 58.79
  A 0.82 0.82 -39.2 0 0 270.68 58.66
  L 232.65 100.08
  A 0.54 0.54 40.9 0 1 231.92 100.13
  Z"
/>
<circle fill="#010101" cx="79.24" cy="98.73" r="4.52"/>
<circle fill="#010101" cx="125.52" cy="98.72" r="4.51"/>
<path fill="#010101" d="
  M 104.68 135.33
  Q 109.96 133.90 111.74 127.09
  A 0.75 0.69 -81.5 0 1 112.43 126.53
  L 120.31 126.65
  A 0.50 0.47 -87.8 0 1 120.78 127.19
  Q 119.90 139.35 108.75 143.75
  Q 105.34 145.09 101.60 144.92
  Q 98.15 144.76 94.71 143.20
  Q 85.01 138.79 84.04 127.25
  A 0.51 0.48 86.7 0 1 84.50 126.69
  L 92.28 126.54
  A 0.70 0.63 81.4 0 1 92.92 127.06
  Q 94.22 131.81 97.30 134.06
  Q 100.56 136.45 104.68 135.33
  Z"
/>
<rect fill="#010101" x="-4.52" y="-4.50" transform="translate(181.02,163.50) rotate(-0.4)" width="9.04" height="9.00" rx="0.32"/>
<rect fill="#010101" x="194.77" y="159.00" width="46.48" height="9.00" rx="0.57"/>
<rect fill="#010101" x="176.48" y="177.50" width="64.76" height="9.02" rx="0.27"/>
<rect fill="#010101" x="-36.87" y="-4.58" transform="translate(213.37,200.57) rotate(-0.1)" width="73.74" height="9.16" rx="0.28"/>
<rect fill="#010101" x="-4.49" y="-4.55" transform="translate(264.25,200.49) rotate(-0.2)" width="8.98" height="9.10" rx="0.26"/>
<rect fill="#010101" x="176.50" y="223.75" width="36.76" height="9.00" rx="0.27"/>
<path fill="#010101" d="
  M 268.75 269.44
  A 0.31 0.31 0.0 0 1 268.44 269.75
  L 223.06 269.75
  A 0.31 0.31 0.0 0 1 222.75 269.44
  L 222.75 224.06
  A 0.31 0.31 0.0 0 1 223.06 223.75
  L 268.44 223.75
  A 0.31 0.31 0.0 0 1 268.75 224.06
  L 268.75 269.44
  Z
  M 259.75 233.27
  A 0.52 0.52 0.0 0 0 259.23 232.75
  L 232.27 232.75
  A 0.52 0.52 0.0 0 0 231.75 233.27
  L 231.75 260.23
  A 0.52 0.52 0.0 0 0 232.27 260.75
  L 259.23 260.75
  A 0.52 0.52 0.0 0 0 259.75 260.23
  L 259.75 233.27
  Z"
/>
<rect fill="#010101" x="176.50" y="242.25" width="36.76" height="9.00" rx="0.27"/>
<rect fill="#010101" x="176.47" y="260.75" width="36.78" height="9.00" rx="0.27"/>
</svg>
