<svg width="639" height="874" viewBox="0 0 639 874" fill="lightgray" xmlns="http://www.w3.org/2000/svg">
<g clip-path="url(#clip0_141_757)">
<path d="M411.664 712.48C404.875 711.117 398.245 709.456 391.364 707.734C391.585 715.702 389.943 724.042 384.387 732.576C384.998 726.691 385.712 721.912 385.943 717.119C386.337 709.081 384.775 701.648 379.071 695.739C377.197 693.794 375.408 693.066 372.736 694.844C368.062 697.952 363.227 696.512 358.692 694.752C349.068 691.01 339.492 687.129 330.024 683.016C326.355 681.422 322.865 679.284 319.588 676.97C313.072 672.368 309.47 666.152 310.847 657.584C310.926 657.095 310.945 656.594 310.982 656.098C311.912 642.294 309.046 637.062 299.269 634.715C286.21 631.587 273.117 636.751 268.37 647.052C264.97 654.442 265.999 661.947 270.452 667.743C278.317 677.978 287.161 687.438 295.821 697.012C303.84 705.88 312.784 713.949 320.202 723.306C332.265 738.527 336.702 755.796 327.923 775.044C318.485 795.736 302.597 807.199 280.421 808.894C265.787 810.01 252.109 806.223 239.026 800.324C209.052 786.816 186.993 765.082 172.793 734.852C168.874 726.508 164 718.404 158.273 711.281C144.792 694.513 126.293 691.172 105.964 694.952C95.8813 696.825 85.9453 699.659 75.3425 702.206C79.6243 720.435 85.2493 737.356 100.798 749.203C95.9853 749.085 84.5428 740.122 78.8401 731.206C73.612 723.033 69.4208 714.152 64.3915 704.882C45.681 709.078 26.2422 711.417 8.15876 700.39C26.358 706.641 43.669 701.526 61.4231 695.145C55.9388 679.542 51.8355 663.765 42.0154 650.665C30.1274 634.806 13.7403 629.523 -5.4632 630.909C-20.2301 631.976 -35.1246 634.589 -49.7405 633.781C-84.1044 631.882 -114.032 618.966 -136.285 592.07C-159.485 564.036 -148.69 531.215 -130.345 514.838C-121.125 506.61 -109.789 502.807 -98.0547 503.792C-82.7703 505.074 -67.6808 508.145 -52.5007 510.409C-43.5474 511.746 -34.6214 513.379 -25.604 514.152C-21.2055 514.53 -16.4703 513.843 -12.1538 512.588C-1.29471 509.434 4.22577 499.694 1.89295 488.603C0.280635 480.922 -3.62667 474.678 -9.64105 469.852C-13.496 466.757 -17.8604 465.99 -22.4122 468.069C-25.5167 469.489 -28.7345 471.152 -31.2104 473.473C-40.7014 482.372 -50.7268 481.45 -60.4354 475.677C-71.3769 469.172 -81.7845 461.759 -92.3773 454.671C-93.6925 453.786 -94.9352 452.61 -95.8116 451.288C-96.9526 449.568 -98.5432 447.541 -98.4464 445.684C-98.1401 439.781 -101.978 439.475 -105.961 439.267C-113.138 438.899 -119.348 441.851 -124.987 446.174C-128.642 448.977 -132.027 452.145 -135.648 455.251C-134.241 449.324 -131.982 446.588 -119.206 435.298C-122.496 433.24 -125.794 431.369 -128.886 429.2C-132.539 426.635 -133.478 424.506 -132.252 421.867C-128.332 424.228 -124.777 426.587 -120.58 429.188C-119.398 429.522 -118.86 429.617 -118.324 429.716C-113.165 430.627 -108.006 431.537 -102.211 432.496C-101.141 432.559 -100.706 432.574 -100.041 432.773C-99.1604 432.528 -98.5106 432.1 -97.6646 431.43C-97.3982 430.788 -97.3281 430.387 -97.258 429.985C-96.6228 428.358 -95.9897 426.734 -94.949 424.429C-94.1681 423.086 -93.7949 422.422 -93.4195 421.755C-93.1199 421.45 -92.8204 421.145 -92.0749 420.546C-90.8346 419.627 -90.0375 418.996 -89.2409 418.367C-88.5137 418.162 -87.7866 417.957 -86.5535 417.537C-81.9302 416.237 -77.8131 415.154 -73.6962 414.071C-73.4906 414.184 -73.2754 414.2 -72.5606 414.101C-70.7438 413.655 -69.418 413.229 -68.092 412.802C-64.1889 411.752 -60.2857 410.702 -55.8403 409.515C-54.7751 409.148 -54.2527 408.918 -53.7306 408.688C-48.2854 408.38 -42.7847 407.538 -37.4154 407.962C-34.0864 408.224 -30.9561 410.408 -27.246 412.168C-26.302 412.915 -25.8483 413.222 -25.3939 413.53C-25.1748 413.908 -24.9556 414.287 -24.33 415.062C-23.498 415.789 -23.0724 416.121 -22.6465 416.452C-22.3572 416.931 -22.068 417.41 -21.429 418.326C-19.4302 420.634 -17.7813 422.506 -16.132 424.377C-14.3001 426.834 -12.4683 429.292 -10.192 432.121C-9.59039 432.562 -9.43342 432.631 -9.20705 432.948C-8.97764 433.249 -8.81741 433.302 -8.45144 433.592C-7.49957 434.184 -6.75425 434.539 -6.00916 434.894C-1.75927 437.6 2.49081 440.305 7.24211 443.367C8.6428 444.023 9.54087 444.322 10.4395 444.621C11.001 445.43 11.5622 446.24 12.6135 447.42C13.6708 448.226 14.2391 448.662 14.807 449.097C24.9515 459.322 33.9999 470.338 36.4958 485.357C42.6324 522.284 16.8431 551.934 -19.9476 549.128C-36.8407 547.837 -53.4384 543.696 -70.2143 541.1C-76.8952 540.067 -83.6888 539.093 -90.4436 539.212C-99.1403 539.368 -106.743 542.693 -110.959 551.409C-115.057 559.882 -113.167 567.814 -108.346 574.791C-100.041 586.813 -87.7385 593.2 -74.2123 597.303C-59.7338 601.695 -44.7243 600.799 -29.7552 599.855C-13.315 598.822 3.00345 598.353 18.8504 603.679C43.7838 612.063 59.5655 628.939 65.5732 655.111C68.2153 666.609 70.576 678.185 73.1587 690.172C79.0966 687.633 84.8335 684.678 90.8522 682.707C103.116 678.691 115.369 673.504 127.926 671.866C150.776 668.885 169.721 678.993 184.254 695.52C194.615 707.298 202.647 721.288 211.191 734.649C220.625 749.395 231.422 762.477 247.536 769.987C256.545 774.187 265.775 777.554 276.091 775.247C290.179 772.102 296.742 760.208 292.152 746.566C289.159 737.661 282.592 731.593 276.48 725.142C265.039 713.059 253.052 701.459 242.257 688.801C231.077 675.696 226.545 660.016 231.178 642.299C236.927 620.317 258.108 603.019 280.43 601.487C295.097 600.48 308.889 603.356 321.761 609.874C329.119 613.599 336.642 615.929 344.947 615.826C346.244 615.812 347.532 616.133 348.827 616.103C364.154 615.74 372.423 624.487 377.052 638.191C379.929 646.702 382.919 655.185 386.219 663.52C389.811 672.578 390.123 680.908 381.341 687.713C389.152 695.953 395.053 705.206 406.303 709.003C407.144 709.284 407.409 709.338 407.693 709.288C408.993 709.87 410.29 710.446 412.018 711.018C412.239 711.398 412.029 711.793 411.664 712.48ZM339.773 674.414C342.316 672.877 344.858 671.344 346.902 670.109C338.063 667.13 329.346 664.195 320.498 661.216C324.202 663.901 327.659 666.43 331.142 668.92C333.74 670.775 336.376 672.578 339.773 674.414ZM-61.2906 462.467C-54.8025 464.45 -48.3118 466.429 -41.8236 468.411C-45.2552 465.659 -49.2159 463.586 -52.7485 460.93C-56.4028 458.183 -59.642 454.873 -63.0639 451.812C-63.4669 451.928 -63.872 452.048 -64.2754 452.164C-63.4821 455.433 -62.6892 458.701 -61.2906 462.467ZM-55.7647 429.923C-50.1708 427.566 -44.5776 425.208 -38.5731 422.678C-42.7753 420.258 -46.9505 417.622 -51.1913 420.914C-53.5268 422.727 -54.4607 426.447 -55.7647 429.923ZM359.033 640.797C359.6 644.26 360.168 647.723 360.767 651.4C363.506 648.002 367.963 645.214 365.173 640.577C363.219 637.334 359.909 634.965 357.204 632.206C356.895 632.467 356.582 632.727 356.269 632.986C357.131 635.361 357.997 637.738 359.033 640.797Z"/>
<path d="M373.357 149.549C374.858 150.784 375.833 152 377.074 152.8C415.62 177.635 444.498 211.162 463.644 253.458C463.846 253.903 464.05 254.346 464.588 255.522C458.374 257.042 452.6 258.543 446.79 259.854C439.464 261.506 432.135 263.201 424.748 264.426C422.909 264.731 420.248 263.9 418.969 262.58C401.052 244.093 379.417 232.783 354.139 228.194C352.509 227.898 350.323 226.699 349.762 225.312C341.802 205.641 332.85 186.302 328.959 165.113C327.743 158.494 328.009 151.55 327.588 144.609C309.206 144.077 270.263 166.689 260.621 199.207C259.847 195.261 259.072 191.315 258.247 187.115C251.364 197.875 253.215 215.231 262.808 227.741C270.049 202.107 280.989 179.469 305.477 165.73C306.602 192.16 307.386 218.133 317.052 242.257C309.722 248.473 280.738 253.581 270.866 250.328C271.676 249.612 272.214 248.936 272.904 248.56C279.097 245.185 285.367 241.958 291.473 238.423C292.377 237.9 293.158 235.859 292.951 234.752C290.177 219.931 291.335 205.132 294.08 190.313C294.16 189.88 294.014 189.409 293.912 188.271C285.061 196.432 279.436 205.979 275.968 216.877C275.011 219.884 273.843 223.071 273.94 226.102C274.155 232.799 271.074 236.043 265.291 239.083C246.977 248.71 231.18 261.625 220.574 278.87C217.41 270.958 214.094 262.795 210.91 254.576C210.403 253.266 210.43 251.711 210.309 250.258C206.741 207.597 188.059 175.032 150.543 155.155C146.234 152.871 141.546 151.304 135.777 148.876C207.151 116.43 277.637 105.876 349.47 137.298C357.516 141.132 365.236 145.234 373.357 149.549Z"/>
<path d="M23.5226 381.322C23.9688 376.675 24.4151 372.027 24.7073 366.798C24.0814 364.382 23.609 362.548 23.1371 360.715C22.7362 358.089 22.3355 355.463 21.9189 352.26C21.7449 350.667 21.5864 349.652 21.4283 348.638C21.3145 336.078 27.1582 326.615 37.2674 318.772C38.1359 317.99 38.5332 317.563 38.9305 317.135C48.7228 310.201 58.7127 303.471 64.36 291.501C65.0907 291.289 65.43 291.44 65.7697 291.592C65.7697 291.592 65.7183 291.61 65.6126 291.938C65.9028 294.997 66.2984 297.728 66.6942 300.459C66.8667 302.22 67.0388 303.981 67.3201 306.368C68.0898 309.819 68.7499 312.641 69.4103 315.464C69.8458 317.493 70.2812 319.522 70.9858 321.87C71.2549 322.189 71.3078 322.263 71.198 322.494C71.7454 323.978 72.4028 325.231 73.1027 326.517C73.1448 326.551 73.0963 326.651 72.7862 326.809C72.7931 327.988 73.1109 329.008 73.3709 330.356C73.82 331.861 74.3267 333.039 74.8094 334.53C75.3983 336.346 76.0113 337.849 76.6032 339.669C77.0617 340.889 77.5422 341.791 77.9854 342.973C78.3996 344.033 78.8507 344.813 79.3177 345.948C80.1922 348.436 81.0517 350.568 81.9116 352.7C82.2876 352.628 82.664 352.556 83.0403 352.484C82.9579 350.697 82.875 348.91 82.8999 346.785C82.8663 344.419 82.7258 342.392 82.7113 340.038C82.7771 337.371 82.7165 335.029 82.6866 332.632C82.7173 332.577 82.692 332.456 82.8399 332.194C82.8951 331.354 82.8033 330.775 82.868 329.881C83.0362 327.946 83.0472 326.327 83.2164 324.426C83.3823 322.876 83.3901 321.607 83.3978 320.339C84.3398 315 85.282 309.661 86.3337 303.645C86.5031 302.514 86.5627 302.06 86.7962 301.378C87.0396 300.6 87.1089 300.052 87.3578 299.214C87.5638 298.48 87.5906 298.036 87.6174 297.592C89.6418 292.949 91.6665 288.306 94.1337 282.934C95.799 280.235 97.0217 278.267 98.2441 276.3C95.5348 276.434 93.6648 277.34 91.737 278.078C90.4871 278.556 89.1528 278.791 87.8564 279.134C90.2103 269.395 92.8975 259.795 99.7365 251.998C101.381 250.123 103.125 248.341 105.324 246.107C106.854 244.806 107.884 243.916 108.914 243.024C110.606 242.109 112.299 241.195 114.497 239.995C116.625 239.001 118.248 238.293 119.871 237.585C122.77 236.79 125.669 235.996 128.511 234.75C128.455 234.297 128.561 234.318 128.561 234.318C131.98 234.731 135.401 235.145 139.409 235.61C140.546 235.631 141.093 235.599 141.641 235.569C142.627 235.825 143.614 236.081 145.102 236.373C146.239 236.494 146.875 236.58 147.51 236.667C150.499 237.671 153.488 238.675 157.149 239.904C158.084 231.898 156.862 224.78 154.025 217.774C153.616 217.727 153.686 217.664 153.686 217.664C153.056 215.146 152.426 212.628 151.547 209.591C150.548 207.759 149.797 206.445 149.047 205.132C145.213 199.848 141.378 194.563 137.061 188.849C135.428 187.42 134.277 186.423 133.125 185.426C125.337 179.58 117.55 173.734 108.532 166.963C128.364 168.309 145.346 174.201 161.287 183.493C182.728 195.991 201.89 224.006 204.911 248.311C200.495 248.624 196.162 248.931 192.237 249.209C191.615 248.234 191.259 247.939 191.299 247.7C193.991 231.434 186.789 219.858 174.769 210.979C167.954 205.944 160.494 201.802 152.827 197.939C156.696 206.566 164.406 210.847 171.913 216.036C168.059 220.379 164.462 224.912 166.398 231.083C168.308 237.169 173.349 239.177 179.198 240.18C178.86 241.244 178.706 242.041 178.368 242.751C175.651 248.455 175.835 249.476 181.646 251.994C185.475 253.653 189.615 254.598 193.606 255.891C200.212 258.03 200.957 260.39 196.584 266.605C207.367 267.538 206.38 276.711 207.325 283.766C208.554 292.946 204.309 300.42 196.652 306.385C196.742 282.122 181.492 267.522 166.19 253.551C153.569 242.028 126.602 241.556 112.409 251.293C109.076 253.58 106.423 256.922 103.892 260.369C112.747 256.456 121.234 252.391 132.342 255.29C113.991 264.797 101.511 277.689 97.7519 299.065C107.564 289.692 117.051 281.669 129.504 278.215C125.578 282.696 121.562 287.098 117.745 291.671C106.697 304.91 97.7848 319.261 95.1191 336.692C92.9526 350.86 94.9269 364.364 100.141 377.434C102.066 382.257 103.496 387.354 104.616 392.462C106.332 400.284 110.882 405.668 117.586 409.173C123.42 412.222 129.508 414.788 136.165 417.885C133.321 418.882 130.825 419.758 126.989 421.102C143.785 425.494 159.122 423.393 174.673 418.671C168.355 428.244 158.749 432.909 149.043 438.582C148.441 439.398 148.389 439.815 148.337 440.233C148.76 440.078 149.182 439.922 149.605 439.767C171.909 435.521 186.463 422.016 194.323 400.517C196.444 394.717 198.675 388.951 200.576 383.082C200.972 381.858 200.638 379.644 199.785 378.909C184.363 365.636 178.656 347.82 177.492 327.787C177.214 322.997 176.738 318.226 175.666 313.509C171.595 325.068 172.294 336.649 174.362 348.262C173.961 348.334 173.56 348.406 173.158 348.478C171.786 345.145 170.516 341.761 169.017 338.491C166.718 333.478 163.781 328.727 161.997 323.528C159.897 317.403 158.345 310.995 157.311 304.562C156.647 300.425 155.28 297.245 152.301 294.413C146.331 288.736 140.653 282.741 134.336 276.352C135.777 275.822 136.847 275.267 137.972 275.039C158.17 270.944 179.161 281.35 188.339 299.792C190.867 304.871 190.49 309.851 187.849 315.85C200.453 311.482 210.952 305.803 216.531 293.6C220.543 284.823 228.204 282.309 236.442 280.177C227.633 289.581 220.554 299.797 220.606 313.039C220.627 318.284 222.42 323.47 223.406 328.683C223.955 328.646 224.503 328.61 225.052 328.573C226.459 324.547 227.867 320.521 229.274 316.494C229.68 316.422 230.086 316.351 230.492 316.28C232.588 337.739 240.708 355.069 261.697 364.139C257.616 369.328 254.094 373.806 250.572 378.284C250.748 378.677 250.924 379.07 251.1 379.463C256.18 377.299 261.261 375.136 266.343 372.973C266.595 373.185 266.847 373.396 267.099 373.608C263.17 378.803 259.241 383.998 255.351 389.14C261.479 390.765 273.979 385.554 280.79 378.722C286.138 373.356 290.35 362.291 287.702 354.75C281.563 353.861 275.592 352.996 269.622 352.132C269.578 351.672 269.533 351.213 269.489 350.753C271.611 349.226 273.732 347.699 276.634 345.611C266.863 343.61 258.479 340.661 251.265 333.149C256.108 332.747 260.106 332.415 264.93 332.014C256.153 324.437 254.112 315.351 256.144 303.912C256.929 305.065 257.368 305.454 257.497 305.937C260.586 317.49 267.742 325.153 278.357 330.087C283.474 332.465 287.952 336.205 292.663 339.291C300.434 322.152 290.712 303.113 271.109 298.662C270.814 300.993 270.522 303.302 270.198 305.864C260.508 294.829 261.615 280.724 272.724 271.618C280.557 265.197 289.584 261.917 299.435 261.321C315.569 260.344 330.411 264.442 344.24 272.632C335.601 272.388 326.963 272.145 318.325 271.901C318.235 272.371 318.145 272.841 318.055 273.311C322.753 276.64 327.45 279.969 332.149 283.298C317.088 281.202 302.381 280.425 287.553 286.359C291.679 291.199 295.55 295.74 299.866 300.804C300.21 297.37 300.526 294.214 300.927 290.204C307.067 297.416 310.068 305.19 309.575 314.231C309.315 319.013 308.513 323.817 307.553 328.538C305.369 339.278 307.46 348.87 313.593 357.534C314.532 358.86 315.276 360.339 316.275 361.611C320.026 366.382 320.204 371.074 316.972 376.662C311.368 386.35 306.254 396.331 301.166 406.308C299.334 409.901 297.542 412.933 293.001 412.718C292.182 412.679 291.314 413.305 289.673 413.925C299.451 417.772 305.347 423.909 305.836 435.59C298.408 427.851 291.459 420.794 280.076 425.137C293.313 428.279 301.174 435.922 301.557 450.376C296.117 446.039 291.176 441.483 285.643 437.841C278.558 433.177 270.574 431.389 261.937 433.392C254.537 435.109 251.746 439.203 252.948 446.737C253 447.062 253.087 447.381 253.143 447.705C253.816 451.552 255.414 455.795 251.453 458.708C247.396 461.693 242.959 460.131 239.624 457.617C235.245 454.316 231.567 450.065 227.627 446.262C223.397 451.691 222.907 457.536 228.147 462.832C232.257 466.987 237.491 470.101 242.545 473.143C248.583 476.777 254.961 479.841 261.192 483.152C260.81 483.964 260.429 484.776 260.048 485.587C253.45 482.596 246.852 479.604 239.146 476.11C240.587 478.996 241.388 481.352 242.776 483.257C250.165 493.398 264.319 497.887 276.573 494.253C277.744 493.906 279.255 493.71 280.285 494.164C290.135 498.508 298.807 495.522 306.495 488.686C316.816 479.508 322.885 467.904 324.9 453.133C319.41 457.113 315.751 462.837 308.178 463.121C321.926 442.605 321.989 417.53 334.276 397.436C336.165 410.206 338.046 422.921 339.927 435.635C340.397 435.558 340.868 435.48 341.338 435.403C343.474 429.2 345.61 422.997 348.186 415.516C349.518 420.916 350.503 424.915 351.803 430.187C354.305 424.668 356.193 420.504 358.415 415.602C377.278 427.608 396.187 424.83 415.386 414.376C412.26 422.705 402.645 432.348 390.982 437.042C380.711 441.176 369.878 443.764 358.889 447.16C367.232 451.932 376.844 452.334 386.229 453.489C386.326 454.102 386.423 454.715 386.52 455.328C382.585 456.678 378.707 458.785 374.706 459.201C368.606 459.831 362.28 460.062 356.321 459.047C349.536 457.892 343.9 459.726 339.23 464.213C333.627 469.596 328.703 475.722 323.545 481.582C321.564 483.832 319.778 486.257 317.853 488.56C308.366 499.908 296.456 504.357 282.374 501.982C279.242 501.455 277.865 501.962 276.683 505.269C274.176 512.285 268.967 517.246 262.963 521.343C256.403 525.82 249.685 530.067 243.28 534.767C236.773 539.543 232.248 546.052 228.208 554.458C232.3 552.699 235.29 551.06 238.461 550.106C256.815 544.587 275.091 538.686 293.62 533.947C320.099 527.175 345.215 517.633 366.776 499.617C370.923 496.15 374.956 492.538 379.297 489.222C373.159 503.335 363.987 515.308 352.135 524.677C340.437 533.92 327.781 541.883 315.151 550.679C331.092 548.18 346.446 544.01 361.208 537.218C376.012 530.405 388.881 520.763 400.414 508.665C402.193 523.842 394.516 537.465 380.796 543.916C377.671 545.382 374.458 546.731 371.18 547.719C362.595 550.299 356.994 556.192 352.42 563.79C347.702 571.631 342.938 579.577 337.179 586.623C328.496 597.238 318.787 598.778 307.753 591.375C299.614 585.915 292.404 579.073 284.542 573.169C275.87 566.657 266.466 562.761 255.05 566.083C250.948 567.277 248.991 569.366 248.385 573.501C247.398 580.243 246.31 586.982 244.97 593.669C243.088 603.067 239.389 611.433 231.179 617.232C227.701 619.69 224.594 622.697 221.413 625.376C216.794 623.318 216.102 620.423 218.07 615.79C222.601 605.122 225.623 594.055 225.092 582.37C225.058 581.599 225.024 580.828 224.387 579.978C221.518 588.314 218.961 596.777 215.662 604.943C213.629 609.975 210.615 614.666 207.686 619.278C206.99 620.373 204.863 620.553 203.396 621.151C202.997 619.355 201.911 617.401 202.314 615.795C203.971 609.191 206.114 602.696 208.004 596.138C208.369 594.867 208.399 593.501 208.584 592.18C208.086 592.066 207.591 591.947 207.094 591.832C206.593 593.171 206.267 594.612 205.564 595.832C199.411 606.51 193.459 617.32 186.836 627.697C184.702 631.04 180.924 633.479 177.549 635.797C176.104 636.788 172.566 637.259 172.067 636.504C170.458 634.055 167.299 632.129 168.854 627.998C171.969 619.725 175.082 611.408 177.439 602.912C179.344 596.048 180.138 588.898 181.426 581.871C180.728 581.676 180.033 581.476 179.335 581.281C178.137 583.857 176.787 586.379 175.769 589.021C172.827 596.655 170.102 604.367 167.117 611.983C165.903 615.083 164.546 618.215 162.692 620.944C161.155 623.206 159.051 625.889 156.732 626.571C154.148 627.328 150.691 626.667 148.306 625.359C147.209 624.76 147.005 620.876 147.698 618.939C151.017 609.68 155.081 600.672 158.273 591.376C160 586.347 160.514 580.915 161.576 575.666C161.017 575.55 160.458 575.433 159.899 575.317C156.788 583.412 153.847 591.578 150.508 599.578C148.196 605.117 145.313 610.42 142.725 615.847C141.144 619.16 138.56 620.825 135.163 619.886C129.145 618.22 122.842 616.919 117.389 614.068C110.444 610.434 104.132 605.543 97.725 600.942C94.0799 598.319 93.2765 594.586 95.8703 590.528C102.694 579.85 109.61 569.237 116.507 558.609C117.455 557.148 118.499 555.748 119.499 554.319C119.185 553.961 118.872 553.599 118.558 553.241C116.59 554.779 114.205 555.988 112.728 557.911C106.644 565.83 100.83 573.96 94.93 582.023C93.3538 584.177 92.0777 586.645 90.1903 588.453C88.6121 589.967 85.4588 592.119 84.5533 591.539C82.1086 589.972 78.8452 587.108 78.9045 584.747C79.0106 580.537 80.5728 575.853 82.8556 572.207C88.6063 563.023 95.1075 554.31 101.284 545.393C102.19 544.085 102.97 542.689 103.808 541.334C103.485 540.966 103.162 540.599 102.839 540.231C100.319 542.069 97.333 543.495 95.3632 545.811C87.3961 555.179 79.7717 564.854 71.936 574.338C70.7602 575.761 69.2593 577.527 67.6754 577.877C60.7755 579.405 59.3817 578.128 59.437 570.905C59.5149 560.78 63.7023 551.822 68.1456 542.995C71.3926 536.545 74.8979 530.222 78.2877 523.843C77.9618 523.597 77.6341 523.356 77.3082 523.111C72.531 528.939 67.6754 534.704 63.0137 540.624C61.0173 543.159 59.0081 544.541 55.6028 542.675C57.6873 527.184 70.2801 517.617 78.1612 503.862C68.271 509.179 61.9286 516.228 56.3873 524.172C55.3374 525.677 53.9349 526.99 53.153 528.612C51.0645 532.944 48.0071 533.192 44.0027 531.322C44.2316 517.357 45.4099 503.685 57.0138 493.247C62.2009 488.58 67.079 483.557 72.1702 478.777C74.788 476.319 75.3157 473.889 74.1483 470.35C69.1373 455.163 57.2296 449.475 42.4669 446.374C39.9727 445.931 38.144 445.685 36.3151 445.439C35.9639 445.258 35.6134 445.076 34.6738 444.76C33.6328 444.612 33.1807 444.599 32.729 444.587C31.6495 444.259 30.5694 443.932 28.8707 443.457C27.1712 443.043 26.0904 442.778 25.0096 442.514C21.3742 440.09 17.7388 437.666 13.7659 434.751C12.7548 433.143 12.0806 432.026 11.4071 430.91C11.3464 430.451 11.2861 429.993 11.0697 429.024C10.3775 425.563 9.84204 422.615 9.30599 419.666C9.80133 418.084 10.2464 416.485 10.8009 414.923C13.3332 407.794 15.896 400.676 18.7812 392.917C19.4334 391.505 19.7524 390.731 20.0715 389.957C20.7318 388.662 21.3925 387.367 22.3227 385.447C22.9029 383.655 23.2129 382.488 23.5226 381.322ZM216.957 458.427C218.528 453.601 219.741 448.805 217.129 444.022C208.852 428.863 190.329 427.947 180.211 442.221C179.729 442.902 179.225 443.573 178.804 444.293C173.766 452.915 166.242 458.359 157.277 461.892C151.312 464.242 145.247 466.313 139.303 468.718C131.317 471.95 123.8 475.982 118.101 482.92C110.949 491.626 113.006 507.727 122.147 512.972C121.132 502.737 125.471 494.512 131.555 486.244C132.811 489.731 133.453 492.667 134.839 495.159C140.438 505.227 150.32 507.037 160.372 498.283C168.664 491.062 175.422 481.99 182.847 473.727C185.072 471.251 187.254 468.735 189.456 466.238C189.978 466.532 190.5 466.827 191.022 467.12C189.518 471.939 188.076 476.778 186.495 481.573C182.937 492.367 179.381 503.173 180.543 514.685C181.441 523.585 186.891 528.646 195.716 528.443C199.158 528.364 202.607 527.187 206.743 526.374C202.83 535.868 198.859 544.613 188.883 548.943C200.572 553.314 214.499 545.779 217.356 533.876C220.022 522.762 217.756 512.108 214.804 501.678C210.754 487.37 209.093 473.267 216.957 458.427ZM74.2436 386.667C73.603 383.973 72.9628 381.28 72.322 378.587C69.42 391.087 67.0622 403.31 70.5549 415.23C74.3051 428.031 86.6763 432.157 95.8394 439.758C86.9295 422.968 77.6223 406.516 74.2436 386.667ZM122.178 513.992L122.416 514.225C122.416 514.225 122.46 513.901 122.178 513.992Z"/>
<path d="M412.983 379.763C405.209 387.667 396.238 391.288 384.282 388.008C386.817 392.387 388.857 395.913 391.482 400.449C380.969 398.522 373.477 393.238 365.954 385.879C365.958 389.612 365.96 392.282 365.964 395.644C357.279 390.453 352.223 383.061 349.953 373.953C348.653 368.737 347.057 364.894 341.219 364.512C340.718 364.479 340.265 363.905 338.941 363.006C351.282 360.969 359.309 353.3 367.14 345.349C376.04 336.313 386.416 331.651 399.717 333.14C396.505 335.637 393.762 337.77 390.719 340.136C397.896 341.085 404.562 341.967 411.228 342.849C411.234 343.325 411.239 343.801 411.245 344.278C408.164 345.492 405.083 346.708 401.867 347.976C409.375 354.818 416.643 361.443 423.911 368.067C423.687 368.497 423.46 368.925 423.232 369.354C416.917 369.263 410.599 369.169 403.018 369.059C405.272 367.349 406.683 366.279 408.096 365.207C396.538 350.272 371.814 352.53 362.09 368.529C367.351 370.809 373.098 372.514 377.999 375.584C388.943 382.438 400.431 382.815 412.786 379.56C412.999 379.82 412.983 379.763 412.983 379.763Z"/>
<path d="M458.9 305.052C459.585 313.195 460.375 320.966 461.276 329.858C457.207 326.114 453.654 322.844 448.951 318.517C449.841 325.634 450.566 331.469 451.478 338.748C440.892 324.067 432.728 309.68 430.08 291.94C457.056 286.349 479.599 271.873 502.397 257.886C507.434 275.258 493.882 311.406 478.894 320.137C484.852 307.139 490.326 294.411 491.353 280.513C480.465 288.651 469.739 296.668 458.9 305.052Z"/>
<path d="M487.057 348.859C487.144 364.707 484.157 379.528 476.599 393.743C476.41 378.407 476.222 363.429 476.03 347.962C478.918 346.671 482.491 345.07 486.741 343.166C486.845 345.134 486.932 346.814 487.057 348.859Z"/>
<path d="M290.316 323.784C288.072 327.203 285.131 328.848 281.792 327.284C279.884 326.39 277.79 324.245 277.379 322.273C276.927 320.105 278.313 317.489 279.048 314.449C280.569 318.093 280.959 321.623 282.632 322.391C284.814 323.394 288.012 322.209 290.851 321.958C290.854 321.947 290.655 322.715 290.316 323.784Z"/>
<path d="M373.423 364.677C374.203 363.051 374.881 361.775 375.261 361.061C376.755 363.628 377.638 366.939 379.734 368.162C381.332 369.096 384.467 367.382 386.678 366.898C386.318 370.781 384.116 373.191 380.123 373.189C375.915 373.187 373.508 370.299 373.423 364.677Z"/>
</g>
<defs>
<clipPath id="clip0_141_757">
<rect width="619.27" height="660.466" fill="white" transform="translate(91.915) rotate(27.9848)"/>
</clipPath>
</defs>
</svg>
