<svg width="71" height="76" viewBox="0 0 71 76" fill="none" xmlns="http://www.w3.org/2000/svg">
<g clip-path="url(#clip0_141_712)">
<path d="M70.7035 55.134C69.9428 55.362 69.1822 55.5513 68.3928 55.7478C68.8439 56.5455 69.1263 57.4817 69.023 58.6489C68.7682 58.0179 68.5834 57.4937 68.349 56.9942C67.9564 56.1561 67.3983 55.4852 66.503 55.1927C66.2085 55.0963 65.9882 55.1188 65.8133 55.4438C65.5074 56.012 64.9405 56.1268 64.3866 56.1928C63.2109 56.3322 62.0326 56.4549 60.8527 56.5482C60.3954 56.5843 59.9271 56.5555 59.4708 56.4973C58.5635 56.3815 57.8645 55.9444 57.5429 54.9993C57.5246 54.9454 57.4996 54.8935 57.4766 54.8411C56.8282 53.3881 56.2565 53.0113 55.1404 53.3006C53.6499 53.6879 52.6021 54.9197 52.6757 56.2227C52.729 57.1572 53.2369 57.8643 53.9997 58.2128C55.3466 58.8282 56.7509 59.3119 58.1427 59.8172C59.4317 60.2853 60.7713 60.6223 62.0258 61.1726C64.066 62.0679 65.4442 63.5831 65.5909 66.0131C65.7486 68.6254 64.7567 70.648 62.6027 72.0176C61.1811 72.9212 59.5925 73.275 57.9506 73.3819C54.1892 73.6277 50.7865 72.6104 47.7224 70.3052C46.8768 69.6689 45.9474 69.1086 44.9843 68.694C42.7173 67.7181 40.6647 68.3774 38.8098 69.8592C37.8898 70.594 37.0363 71.4185 36.0998 72.2498C37.514 73.8709 38.9938 75.2866 41.2054 75.6509C40.7118 75.8988 39.0711 75.6058 38.0141 75.0078C37.045 74.4595 36.1429 73.7834 35.135 73.113C33.4664 74.5497 31.6242 75.837 29.2001 75.6928C31.3789 75.3453 32.8564 73.8908 34.3106 72.2838C32.916 70.9945 31.6517 69.6128 29.9528 68.8119C27.8959 67.8423 25.9526 68.1903 24.0829 69.3681C22.6452 70.2738 21.2778 71.3435 19.7545 72.0506C16.1732 73.7132 12.4484 74.0166 8.7483 72.4851C4.89128 70.8891 4.21845 66.9712 5.1948 64.3164C5.68564 62.9825 6.62879 61.984 7.86972 61.4504C9.48617 60.7554 11.1792 60.2528 12.8378 59.6631C13.8163 59.3156 14.8078 58.9996 15.7624 58.5913C16.228 58.3921 16.6705 58.0666 17.04 57.706C17.9698 56.7992 18.0047 55.5114 17.1718 54.5103C16.5954 53.8169 15.8639 53.3934 14.9953 53.2278C14.4385 53.1214 13.9554 53.2791 13.6064 53.7362C13.3684 54.048 13.1321 54.3908 13.0063 54.7603C12.5241 56.1771 11.4595 56.6247 10.166 56.5623C8.70825 56.4921 7.25573 56.3008 5.8019 56.1524C5.62116 56.1336 5.43207 56.0812 5.27222 55.9942C5.06414 55.8809 4.79409 55.7609 4.70398 55.567C4.41742 54.9506 4.01233 55.1267 3.5979 55.3206C2.85146 55.6708 2.38157 56.306 2.04325 57.0498C1.82393 57.532 1.65171 58.0367 1.45219 58.5478C1.27576 57.8695 1.35732 57.4696 2.04346 55.6325C1.59957 55.6011 1.16504 55.589 0.73533 55.5355C0.227423 55.4721 0.0177826 55.3065 0 54.9721C0.523891 55.0004 1.01075 55.0481 1.57564 55.0858C1.71326 55.0559 1.77284 55.0366 1.83243 55.0177C2.40372 54.8316 2.97501 54.6455 3.61327 54.4301C3.72506 54.3788 3.76988 54.3567 3.84794 54.341C3.92392 54.2687 3.96665 54.1901 4.01628 54.0763C4.00869 53.9967 3.9942 53.9521 3.97971 53.9076C3.95646 53.7079 3.93321 53.5087 3.9146 53.2183C3.92136 53.0396 3.92347 52.9521 3.92559 52.864C3.9395 52.8168 3.95342 52.7697 3.99665 52.6685C4.07276 52.5081 4.11956 52.401 4.16635 52.2941C4.22896 52.234 4.29156 52.1739 4.39377 52.0646C4.79195 51.6829 5.15053 51.3506 5.50908 51.0182C5.53596 51.0186 5.55862 51.0086 5.62565 50.9599C5.78561 50.8165 5.89692 50.7016 6.00822 50.5867C6.34688 50.2692 6.68559 49.9518 7.07181 49.5911C7.15988 49.4963 7.20039 49.4447 7.2409 49.3932C7.77565 49.0679 8.28727 48.6853 8.85365 48.4384C9.20484 48.2853 9.63924 48.3382 10.1096 48.3167C10.2453 48.3416 10.3078 48.3484 10.3703 48.3551C10.4129 48.3817 10.4554 48.4084 10.5605 48.4533C10.6838 48.4823 10.7448 48.493 10.8057 48.5036C10.8608 48.5367 10.9158 48.5698 11.0298 48.6284C11.3563 48.755 11.624 48.8561 11.8916 48.9572C12.2093 49.108 12.527 49.2588 12.9096 49.4234C12.9943 49.4357 13.0139 49.4343 13.0539 49.4543C13.0933 49.4725 13.1123 49.4692 13.165 49.479C13.2932 49.4877 13.3878 49.4835 13.4823 49.4794C14.0582 49.5248 14.634 49.5702 15.2798 49.6248C15.4569 49.6158 15.5639 49.5977 15.671 49.5796C15.7713 49.6315 15.8717 49.6835 16.0417 49.7467C16.1921 49.7715 16.273 49.7851 16.354 49.7986C17.9311 50.2899 19.4399 50.9207 20.5006 52.3121C23.1085 55.7331 22.0926 60.1385 18.2167 61.8399C16.4369 62.6208 14.5337 63.0962 12.6956 63.7383C11.9636 63.9941 11.2234 64.2619 10.5459 64.6388C9.67375 65.1241 9.08294 65.8726 9.12501 66.9859C9.16589 68.0682 9.78406 68.7721 10.6475 69.2208C12.135 69.9939 13.7242 69.9787 15.3144 69.6652C17.0166 69.3298 18.488 68.4283 19.9528 67.5241C21.5617 66.5314 23.1886 65.6027 25.0796 65.2882C28.0551 64.7939 30.5608 65.6566 32.577 67.9917C33.4631 69.0174 34.3249 70.0662 35.2313 71.1449C35.6959 70.5662 36.1177 69.9561 36.6211 69.431C37.6467 68.3607 38.6082 67.1719 39.7914 66.3275C41.9444 64.7908 44.4063 64.795 46.7669 65.6897C48.4495 66.327 50.0153 67.315 51.5992 68.2113C53.3476 69.2003 55.1445 69.9467 57.1801 69.8398C58.3181 69.78 59.4338 69.6238 60.3542 68.8324C61.6113 67.7521 61.6358 66.1892 60.4372 65.0507C59.6551 64.3075 58.6637 64.0454 57.6979 63.7199C55.8895 63.1099 54.0519 62.5784 52.2779 61.875C50.441 61.147 49.1386 59.7983 48.6545 57.7479C48.0539 55.2038 49.2677 52.3023 51.4454 50.9414C52.8762 50.0471 54.4272 49.5946 56.0811 49.5619C57.0266 49.5432 57.9135 49.3738 58.7488 48.9149C58.8794 48.8434 59.0271 48.8064 59.1566 48.7335C60.6888 47.8691 61.9966 48.3113 63.2025 49.4539C63.9517 50.1635 64.7108 50.864 65.4933 51.5327C66.3443 52.2593 66.824 53.0889 66.3009 54.2545C67.5351 54.6702 68.6304 55.2918 69.9736 55.0701C70.0739 55.0533 70.1036 55.0444 70.1297 55.024C70.2926 55.013 70.455 55.0014 70.6607 54.9663C70.7035 54.9931 70.7035 55.0444 70.7035 55.134ZM61.3769 55.1477C61.5518 54.8542 61.7267 54.5612 61.8671 54.3253C60.812 54.4998 59.7716 54.6723 58.7154 54.8473C59.2349 54.9202 59.7209 54.9904 60.2075 55.0554C60.5703 55.1036 60.9342 55.1445 61.3769 55.1477ZM9.36871 55.2661C10.1323 55.1173 10.8959 54.9679 11.6595 54.819C11.164 54.7247 10.6514 54.7278 10.1509 54.6487C9.63313 54.5669 9.1271 54.4055 8.61595 54.2792C8.58139 54.3127 8.54683 54.3468 8.51222 54.3803C8.76839 54.6697 9.02452 54.959 9.36871 55.2661ZM8.17737 51.6608C8.61689 51.1192 9.05636 50.5777 9.52815 49.9963C8.97252 49.9773 8.40797 49.9349 8.15571 50.4984C8.01679 50.8087 8.1224 51.2372 8.17737 51.6608ZM61.5184 50.6918C61.7622 51.013 62.006 51.3343 62.2644 51.6755C62.3589 51.1824 62.6601 50.6583 62.1281 50.3378C61.7559 50.1137 61.2934 50.0518 60.871 49.9175C60.8538 49.9607 60.836 50.004 60.8183 50.0472C61.0334 50.242 61.249 50.4368 61.5184 50.6918Z" fill="white"/>
<path d="M36.5403 1.91548e-09C36.7587 0.0444507 36.9229 0.11528 37.0915 0.129522C42.3302 0.571918 47.0577 2.41955 51.2716 5.68365C51.316 5.71793 51.3605 5.75194 51.4782 5.84236C50.9308 6.33237 50.427 6.79671 49.9092 7.24359C49.2564 7.80703 48.6056 8.37499 47.9236 8.89839C47.7538 9.02864 47.4397 9.08787 47.2391 9.02282C44.4306 8.11166 41.6317 8.13064 38.8255 9.02917C38.6445 9.08714 38.3587 9.08326 38.2273 8.97266C36.3632 7.40361 34.4164 5.92182 32.8825 3.97879C32.4033 3.37179 32.0567 2.65185 31.6406 1.96926C29.7509 2.90776 27.0246 7.30821 27.7978 11.1332C27.5072 10.774 27.2164 10.4149 26.9069 10.0326C26.789 11.4977 27.91 13.1613 29.5543 13.9146C28.9084 10.9188 28.7982 8.02775 30.5382 5.30941C32.0741 7.93435 33.5508 10.5312 35.8272 12.4607C35.4195 13.4882 32.7598 15.5722 31.5853 15.7747C31.6289 15.6582 31.6469 15.5604 31.6965 15.485C32.142 14.8077 32.6032 14.1412 33.0312 13.4523C33.0946 13.3503 33.0639 13.1007 32.9834 12.9995C31.9051 11.6431 31.2262 10.0769 30.7069 8.42279C30.6917 8.37441 30.6516 8.33447 30.5801 8.22435C30.1229 9.5315 30.067 10.8054 30.3023 12.1001C30.3671 12.4572 30.4203 12.8442 30.5933 13.147C30.9752 13.8159 30.8378 14.3119 30.4159 14.9331C29.0796 16.9002 28.1751 19.0655 28.0291 21.3905C27.283 20.7574 26.5081 20.1069 25.7436 19.4436C25.6218 19.338 25.5409 19.1784 25.4504 19.0373C22.7941 14.895 19.1507 12.5947 14.283 12.6005C13.7239 12.6011 13.1649 12.695 12.4502 12.7598C17.9309 5.6089 24.4995 0.730512 33.4628 0.0448924C34.4836 -3.47557e-07 35.4859 -3.44356e-07 36.5403 1.91548e-09Z" fill="white"/>
<path d="M13.5903 42.4411C13.3854 41.9447 13.1805 41.4484 12.9288 40.9012C12.7355 40.6896 12.589 40.5287 12.4426 40.3679C12.2607 40.1227 12.0789 39.8775 11.8644 39.5745C11.7611 39.4221 11.6904 39.3275 11.6198 39.2329C10.9326 37.9628 11.0152 36.6857 11.6167 35.3428C11.6626 35.2165 11.6798 35.1516 11.6971 35.0868C12.3154 33.8534 12.9648 32.6301 12.8926 31.1088C12.9552 31.0479 12.9977 31.0449 13.0402 31.042C13.0402 31.042 13.036 31.0466 13.0429 31.0856C13.2369 31.3808 13.4239 31.637 13.6109 31.8931C13.7231 32.0627 13.8352 32.2324 13.9921 32.4598C14.2557 32.7688 14.4744 33.02 14.6931 33.2712C14.8463 33.4538 14.9996 33.6365 15.1972 33.837C15.2416 33.8549 15.251 33.8596 15.2523 33.889C15.3875 34.0102 15.5215 34.1021 15.6616 34.195C15.6676 34.1961 15.6681 34.2089 15.6452 34.2417C15.7093 34.3611 15.7964 34.4477 15.8953 34.5706C16.0217 34.6993 16.1363 34.7916 16.2654 34.917C16.4228 35.0698 16.5657 35.1894 16.7235 35.3424C16.8356 35.4416 16.9327 35.5073 17.0412 35.6035C17.1402 35.6889 17.2278 35.7437 17.3361 35.8338C17.5585 36.0394 17.7603 36.2097 17.962 36.3799C17.9962 36.3523 18.0305 36.3247 18.0647 36.297C17.9602 36.1199 17.8557 35.9428 17.7439 35.7255C17.6132 35.4869 17.4899 35.2884 17.3618 35.0501C17.225 34.7755 17.0929 34.5408 16.9609 34.2989C16.961 34.2916 16.9519 34.2807 16.9528 34.2461C16.9132 34.1577 16.8728 34.1039 16.8313 34.0095C16.7442 33.8038 16.6582 33.6387 16.573 33.4364C16.5064 33.2699 16.439 33.1406 16.3715 33.0113C16.1797 32.4179 15.9878 31.8245 15.7706 31.1563C15.7269 31.0323 15.7086 30.983 15.6955 30.901C15.6783 30.8089 15.6558 30.7494 15.6359 30.6508C15.6174 30.5652 15.5962 30.5186 15.575 30.472C15.5302 29.8909 15.4854 29.3098 15.4461 28.6306C15.4696 28.2665 15.4875 28.0005 15.5054 27.7346C15.2383 27.8945 15.0977 28.0875 14.9422 28.2666C14.8414 28.3827 14.7189 28.4786 14.6062 28.5835C14.3206 27.4668 14.0761 26.3461 14.3491 25.1845C14.4147 24.9053 14.4955 24.63 14.5979 24.2842C14.6828 24.0695 14.7392 23.9233 14.7955 23.7772C14.9176 23.5928 15.0398 23.4085 15.1977 23.1679C15.3598 22.952 15.486 22.7924 15.6122 22.6328C15.863 22.3955 16.1137 22.1583 16.3345 21.8782C16.3044 21.8352 16.3162 21.8317 16.3162 21.8317C16.6847 21.689 17.0532 21.5463 17.4841 21.3771C17.6003 21.3179 17.6541 21.2852 17.7078 21.2524C17.8215 21.2252 17.9352 21.198 18.1015 21.1473C18.2232 21.0982 18.2922 21.0727 18.3612 21.0471C18.7178 20.9878 19.0744 20.9284 19.5112 20.8557C19.1752 19.9916 18.6685 19.3343 18.0044 18.7756C17.9604 18.7929 17.9641 18.7827 17.9641 18.7827C17.7648 18.5608 17.5656 18.339 17.3132 18.0778C17.1135 17.9456 16.9668 17.8526 16.8202 17.7597C16.1477 17.4298 15.4751 17.0999 14.7307 16.7523C14.4885 16.6953 14.3183 16.6562 14.1481 16.617C13.0451 16.4435 11.9421 16.2699 10.6648 16.0688C12.7451 15.1348 14.7814 14.8165 16.8954 14.9C19.7385 15.0123 23.1857 16.8244 24.7992 19.131C24.3688 19.4012 23.9467 19.6664 23.5643 19.9065C23.4489 19.841 23.397 19.8303 23.3881 19.8039C22.7856 18.0057 21.4337 17.2183 19.739 16.965C18.7782 16.8214 17.8 16.8033 16.816 16.8247C17.6718 17.4925 18.6827 17.5112 19.7219 17.6331C19.5654 18.2825 19.4451 18.9373 19.9731 19.4599C20.4939 19.9752 21.1122 19.907 21.7583 19.6931C21.7815 19.8195 21.8087 19.9088 21.8126 19.9992C21.8445 20.7255 21.918 20.8194 22.6419 20.7614C23.1187 20.7233 23.5887 20.5958 24.0624 20.5116C24.8463 20.3723 25.0487 20.572 24.9403 21.4396C26.0822 20.9521 26.4758 21.9375 26.951 22.6035C27.5693 23.4699 27.5417 24.4586 27.0873 25.4781C25.791 23.0078 23.4616 22.3476 21.1607 21.7543C19.263 21.2648 16.5074 22.6729 15.5942 24.4287C15.3798 24.8411 15.2909 25.3239 15.2201 25.8108C15.9061 24.935 16.5467 24.0637 17.8274 23.7585C16.4808 25.7155 15.9109 27.6993 16.6803 30.0744C17.1695 28.5923 17.6983 27.2647 18.7734 26.2414C18.617 26.9086 18.4471 27.5728 18.3067 28.2436C17.9004 30.1854 17.7702 32.125 18.438 34.0402C18.9809 35.5967 19.9073 36.8624 21.1383 37.9089C21.5927 38.2952 22.0116 38.7358 22.3999 39.1944C22.9945 39.8966 23.7447 40.198 24.612 40.1922C25.3668 40.187 26.1212 40.1191 26.9618 40.0743C26.7276 40.3292 26.5219 40.5529 26.2059 40.8967C28.1426 40.4361 29.5824 39.3944 30.9028 38.0749C30.7782 39.3888 30.0566 40.3815 29.3791 41.4821C29.362 41.5975 29.3792 41.6427 29.3964 41.688C29.4309 41.6494 29.4653 41.6108 29.4997 41.5721C31.5295 39.9363 32.2765 37.7782 31.9157 35.1691C31.8183 34.4653 31.734 33.7588 31.6107 33.0599C31.585 32.9141 31.4321 32.7071 31.3062 32.6785C29.0307 32.1626 27.4944 30.6603 26.2988 28.6875C26.013 28.2158 25.7081 27.7566 25.3459 27.3352C25.5555 28.7295 26.2493 29.8687 27.0834 30.937C27.0467 30.966 27.0099 30.995 26.9732 31.024C26.6549 30.7594 26.3443 30.4841 26.0166 30.2328C25.5142 29.8475 24.9612 29.5233 24.5009 29.0913C23.9587 28.5824 23.4569 28.015 23.0061 27.4171C22.7163 27.0326 22.4069 26.7833 21.9529 26.6563C21.043 26.4018 20.1456 26.0992 19.1623 25.7911C19.2797 25.6595 19.3582 25.5453 19.4598 25.4614C21.2845 23.9546 23.9696 23.8786 25.8909 25.257C26.4201 25.6367 26.6499 26.163 26.7053 26.9153C27.7464 25.7908 28.5038 24.6469 28.4121 23.1056C28.3461 21.9971 28.9864 21.328 29.7058 20.6666C29.3199 22.0977 29.1528 23.5181 29.8705 24.8609C30.1547 25.3927 30.6153 25.8229 30.9956 26.2993C31.0492 26.266 31.1028 26.2327 31.1563 26.1994C31.0822 25.7142 31.0081 25.2291 30.934 24.7439C30.9712 24.7147 31.0085 24.6856 31.0458 24.6564C32.4124 26.7238 34.1668 28.0464 36.7798 27.8347C36.6458 28.5823 36.5301 29.2276 36.4145 29.8728C36.4534 29.9032 36.4924 29.9336 36.5313 29.964C36.9293 29.4699 37.3274 28.9757 37.7255 28.4816C37.7624 28.4894 37.7993 28.4973 37.8362 28.5053C37.7179 29.2453 37.5995 29.9853 37.4824 30.7178C38.1902 30.5521 39.1754 29.3477 39.4974 28.2856C39.7503 27.4516 39.5814 26.0998 38.9077 25.4765C38.2383 25.7177 37.5872 25.9522 36.9362 26.1867C36.907 26.1424 36.8778 26.0981 36.8486 26.0538C36.9813 25.784 37.1139 25.5144 37.2953 25.1454C36.1985 25.4697 35.1909 25.6228 34.0564 25.249C34.5251 24.9466 34.912 24.697 35.3789 24.3958C34.0827 24.0998 33.3872 23.2867 32.9775 22.0145C33.119 22.0893 33.1843 22.1052 33.2234 22.1473C34.1578 23.1545 35.2945 23.5468 36.6346 23.475C37.2806 23.4403 37.9353 23.5786 38.5782 23.6378C38.4429 21.4766 36.4343 20.0668 34.2102 20.6731C34.3058 20.9259 34.4004 21.1763 34.5054 21.4541C32.9308 20.856 32.2839 19.3629 32.9188 17.8378C33.3665 16.7624 34.1039 15.9416 35.0692 15.3492C36.6502 14.3787 38.3733 13.9938 40.214 14.0793C39.3262 14.5209 38.4386 14.9626 37.5509 15.4043C37.5671 15.4569 37.5832 15.5095 37.5994 15.5621C38.2541 15.6468 38.9089 15.7314 39.5636 15.816C37.9261 16.4162 36.3952 17.1314 35.2132 18.535C35.8913 18.804 36.5276 19.0565 37.237 19.338C37.0871 18.9705 36.9493 18.6327 36.7742 18.2035C37.7838 18.6049 38.5058 19.2328 38.9423 20.1781C39.1732 20.6781 39.3505 21.2096 39.5073 21.7411C39.864 22.9503 40.5917 23.8122 41.6788 24.3614C41.8452 24.4455 42.0001 24.5556 42.1696 24.6308C42.806 24.9132 43.0765 25.3803 43.0499 26.1226C43.0038 27.4097 43.023 28.7001 43.0446 29.9886C43.0523 30.4526 43.034 30.8575 42.5627 31.0808C42.4777 31.1211 42.4235 31.2316 42.2907 31.3831C43.4877 31.2461 44.4147 31.5514 45.0927 32.7119C43.9243 32.3266 42.8411 31.9847 41.9223 33.0407C43.4314 32.6452 44.6386 32.9974 45.455 34.4455C44.6708 34.2984 43.9255 34.1024 43.1693 34.031C42.2011 33.9397 41.2965 34.189 40.5298 34.859C39.873 35.4329 39.8107 35.9997 40.3377 36.7004C40.3604 36.7306 40.3864 36.7583 40.4096 36.7882C40.6846 37.1428 41.0747 37.4877 40.8304 37.9976C40.5802 38.5199 40.0469 38.6008 39.574 38.5254C38.9531 38.4263 38.352 38.193 37.7485 38.0193C37.6123 38.7994 37.8772 39.4198 38.6926 39.675C39.3323 39.8752 40.0297 39.9091 40.7051 39.9453C41.5119 39.9885 42.3225 39.9555 43.1314 39.9555C43.1365 40.0586 43.1416 40.1617 43.1466 40.2648C42.3177 40.3171 41.4888 40.3693 40.5206 40.4303C40.8217 40.6458 41.0296 40.8419 41.2725 40.9606C42.5662 41.5921 44.2408 41.2841 45.286 40.253C45.3858 40.1546 45.5282 40.0531 45.657 40.0436C46.8879 39.9532 47.6053 39.1815 48.0159 38.0717C48.5671 36.5818 48.5572 35.075 47.9666 33.4652C47.6248 34.1661 47.5623 34.9453 46.8109 35.3831C47.0991 32.556 45.7565 30.0046 45.9194 27.2993C46.7977 28.4949 47.6722 29.6854 48.5466 30.8758C48.5901 30.8425 48.6336 30.8093 48.677 30.776C48.5596 30.0303 48.4421 29.2847 48.3005 28.3854C48.7258 28.8622 49.0407 29.2154 49.456 29.6809C49.4124 28.985 49.3795 28.46 49.3408 27.8419C51.8964 28.0433 53.6615 26.74 55.0428 24.6412C55.1744 25.6563 54.7197 27.1553 53.7915 28.262C52.9739 29.2367 52.0163 30.0846 51.0865 31.023C52.1879 31.0574 53.1827 30.5793 54.195 30.1899C54.2378 30.247 54.2806 30.304 54.3234 30.3611C53.9977 30.7107 53.7184 31.1343 53.3357 31.3925C52.752 31.7859 52.1239 32.1509 51.466 32.3696C50.7169 32.6185 50.2449 33.1093 50.0135 33.8173C49.7358 34.6669 49.5669 35.5553 49.36 36.4292C49.2804 36.7648 49.2301 37.1077 49.1591 37.4456C48.8091 39.111 47.8425 40.2062 46.2891 40.7253C45.9435 40.8408 45.8315 40.9667 45.8897 41.3666C46.0133 42.2149 45.7528 43.0002 45.3654 43.7407C44.942 44.5499 44.4903 45.3441 44.0948 46.1676C43.6929 47.0042 43.5849 47.91 43.6282 48.9823C43.9478 48.5826 44.1624 48.2546 44.4321 47.9865C45.9934 46.4347 47.5263 44.8481 49.1474 43.3661C51.4638 41.2483 53.4934 38.9225 54.7071 35.9276C54.9405 35.3513 55.1545 34.7666 55.4156 34.1953C55.5534 35.9608 55.2689 37.6727 54.573 39.2646C53.8859 40.8355 53.0329 42.328 52.2274 43.9038C53.7069 42.7891 55.0371 41.5364 56.1663 40.049C57.2986 38.5574 58.0828 36.8828 58.5996 35.0307C59.5962 36.4769 59.5518 38.2757 58.5098 39.672C58.2723 39.9897 58.0196 40.3003 57.7408 40.5777C57.0105 41.3034 56.7604 42.2047 56.7061 43.2237C56.6502 44.2753 56.5954 45.3399 56.3913 46.3668C56.0833 47.9143 55.1833 48.5951 53.6677 48.4386C52.55 48.3232 51.4519 48.0173 50.3383 47.8419C49.11 47.6483 47.9483 47.7603 46.9712 48.7143C46.6201 49.057 46.5343 49.375 46.6955 49.8279C46.9582 50.5663 47.2106 51.3098 47.4347 52.0617C47.7497 53.1182 47.8253 54.1681 47.3061 55.2006C47.0862 55.6383 46.9334 56.1116 46.7555 56.5555C46.1771 56.5959 45.9513 56.3391 45.9013 55.762C45.7861 54.4333 45.4967 53.1455 44.8143 51.9868C44.7693 51.9104 44.7245 51.8338 44.6143 51.7819C44.7723 52.7838 44.9687 53.7818 45.074 54.7897C45.1388 55.4108 45.086 56.0503 45.0376 56.6771C45.0261 56.826 44.8204 56.9591 44.7041 57.0991C44.567 56.9382 44.3519 56.7982 44.3063 56.6132C44.1188 55.8527 43.9863 55.077 43.8249 54.3086C43.7936 54.1597 43.7231 54.0192 43.6707 53.8751C43.6142 53.8903 43.5576 53.905 43.5011 53.9202C43.5224 54.0832 43.567 54.2472 43.5614 54.4092C43.5129 55.8265 43.4919 57.2464 43.3796 58.6584C43.3434 59.1133 43.092 59.5651 42.8751 59.9829C42.7821 60.1616 42.4492 60.4006 42.3581 60.3508C42.0634 60.1889 41.64 60.1637 41.5752 59.66C41.4454 58.651 41.3133 57.6379 41.0948 56.6473C40.9184 55.8469 40.6141 55.0775 40.3665 54.2939C40.2853 54.3117 40.2041 54.329 40.123 54.3468C40.1403 54.6734 40.1393 55.0025 40.1784 55.3259C40.2912 56.2605 40.4302 57.1913 40.5378 58.1264C40.5815 58.5069 40.6127 58.8984 40.5718 59.2758C40.5379 59.5887 40.4692 59.975 40.2711 60.1695C40.0502 60.3859 39.6646 60.5054 39.3528 60.5013C39.2096 60.4997 38.9799 60.116 38.9459 59.8817C38.7838 58.7616 38.7106 57.6269 38.5337 56.5099C38.438 55.9056 38.1979 55.3259 38.0229 54.7352C37.9601 54.7536 37.8972 54.7719 37.8344 54.7902C37.9549 55.7809 38.0964 56.7694 38.1887 57.7626C38.2526 58.4503 38.2461 59.1448 38.276 59.8361C38.2942 60.2581 38.1222 60.5668 37.7277 60.6548C37.0288 60.8105 36.3206 61.0186 35.6152 61.0233C34.7165 61.0291 33.8144 60.8729 32.9181 60.7513C32.408 60.6816 32.1258 60.3456 32.1701 59.7931C32.2865 58.3397 32.4158 56.8878 32.5423 55.4355C32.5597 55.2358 32.5901 55.0371 32.6144 54.8379C32.5633 54.8186 32.5122 54.7986 32.4611 54.7792C32.3446 55.0418 32.1682 55.2934 32.1221 55.5686C31.9321 56.7018 31.7809 57.8418 31.6173 58.9797C31.5736 59.2837 31.5772 59.6034 31.4834 59.8891C31.405 60.1281 31.2015 60.517 31.0787 60.507C30.7469 60.4798 30.2624 60.365 30.1413 60.1218C29.9256 59.6883 29.8318 59.128 29.8668 58.6343C29.9549 57.3905 30.1444 56.1541 30.29 54.9145C30.3113 54.7326 30.3152 54.5486 30.3272 54.3657C30.2747 54.3458 30.2222 54.3259 30.1697 54.3059C30.0134 54.6288 29.7879 54.9349 29.7131 55.2766C29.4104 56.6588 29.1589 58.0535 28.8759 59.4404C28.8334 59.6485 28.7764 59.909 28.6349 60.0301C28.0185 60.5579 27.8087 60.5034 27.4257 59.7664C26.8889 58.7333 26.8309 57.597 26.8059 56.4602C26.7876 55.6294 26.8024 54.7976 26.8024 53.9663C26.7562 53.959 26.71 53.9522 26.6638 53.9448C26.4937 54.795 26.3123 55.643 26.1588 56.4963C26.093 56.8616 25.9639 57.1106 25.5188 57.1048C24.8964 55.4182 25.6567 53.7661 25.7146 51.9428C24.9993 53.0171 24.7364 54.0758 24.6028 55.1823C24.5775 55.392 24.5061 55.6011 24.5142 55.8081C24.5358 56.3611 24.2396 56.5514 23.7335 56.5776C23.0054 55.1461 22.3892 53.6932 23.0025 52.006C23.2766 51.2517 23.5002 50.4779 23.7585 49.7172C23.8913 49.3261 23.814 49.0507 23.5055 48.7542C22.181 47.4815 20.6694 47.5464 19.008 48.0285C18.7316 48.1181 18.5332 48.1918 18.3348 48.2656C18.2895 48.2661 18.2443 48.2666 18.1321 48.2852C18.0188 48.3264 17.9723 48.3495 17.9259 48.3727C17.799 48.3977 17.672 48.4227 17.4745 48.4662C17.2802 48.5159 17.1565 48.5473 17.0328 48.5788C16.5344 48.5288 16.0359 48.4788 15.4768 48.3971C15.2879 48.2883 15.1596 48.2112 15.0313 48.1341C15.0005 48.0908 14.9698 48.0475 14.8957 47.9607C14.6395 47.6465 14.4266 47.3757 14.2138 47.1051C14.1788 46.9175 14.1378 46.731 14.1099 46.5424C13.9828 45.6813 13.8593 44.8196 13.734 43.8753C13.7241 43.6966 13.7147 43.6007 13.7054 43.5048C13.7026 43.3376 13.6998 43.1703 13.6906 42.925C13.653 42.7116 13.6216 42.5763 13.5903 42.4411ZM37.3227 39.8316C37.2221 39.2563 37.087 38.7035 36.5651 38.3585C34.9116 37.2651 32.9869 38.1721 32.7305 40.1688C32.7183 40.2641 32.7034 40.3596 32.6995 40.4554C32.6532 41.6036 32.1844 42.5631 31.4668 43.4061C30.9893 43.967 30.4866 44.5049 30.0142 45.0703C29.3796 45.8299 28.8354 46.6455 28.6317 47.6582C28.376 48.929 29.4504 50.4541 30.658 50.4935C30.0047 49.5083 30.0015 48.4382 30.1727 47.2696C30.4874 47.556 30.7104 47.8197 30.9848 47.9982C32.0933 48.7188 33.1911 48.3692 33.7379 46.9369C34.189 45.7554 34.3852 44.4687 34.6923 43.2281C34.7844 42.8563 34.87 42.4829 34.9586 42.1102C35.0272 42.1119 35.0959 42.1137 35.1646 42.1153C35.2715 42.6862 35.3859 43.2558 35.4838 43.8284C35.7043 45.1173 35.9256 46.4073 36.6625 47.5144C37.2323 48.3703 38.0563 48.5904 38.9389 48.0932C39.2832 47.8993 39.5689 47.5935 39.944 47.2875C40.0586 48.4635 40.1271 49.5666 39.3499 50.5453C40.7686 50.3582 41.7733 48.8406 41.4221 47.4769C41.0941 46.2035 40.2916 45.2432 39.4315 44.3428C38.2518 43.1076 37.3249 41.7642 37.3227 39.8316ZM19.013 40.2455C18.8033 40.0064 18.5936 39.7673 18.3838 39.5282C18.7625 40.9551 19.1814 42.3245 20.1762 43.3471C21.2446 44.4454 22.7191 44.1966 24.0558 44.4743C22.2504 43.2493 20.423 42.08 19.013 40.2455ZM30.7161 50.5954L30.7527 50.6063C30.7527 50.6063 30.7397 50.5709 30.7161 50.5954Z" fill="white"/>
<path d="M52.9372 21.2536C52.5754 22.4765 51.8619 23.3289 50.475 23.6411C50.9672 23.9493 51.3634 24.1974 51.8732 24.5166C50.7052 24.8884 49.6624 24.7561 48.5048 24.4144C48.706 24.7936 48.8499 25.0648 49.0312 25.4062C47.8726 25.3477 46.963 24.8695 46.2431 24.0665C45.8309 23.6067 45.4626 23.3024 44.851 23.5788C44.7985 23.6025 44.7218 23.5686 44.5393 23.5488C45.6792 22.6754 46.0793 21.4627 46.4445 20.2319C46.8593 18.8332 47.6591 17.7992 49.0859 17.2323C48.895 17.6595 48.732 18.0244 48.5512 18.429C49.3289 18.138 50.0513 17.8677 50.7736 17.5973C50.7998 17.6454 50.826 17.6935 50.8522 17.7416C50.6056 18.0314 50.3591 18.3212 50.1017 18.6238C51.2299 18.9137 52.3222 19.1944 53.4144 19.475C53.4149 19.5309 53.4149 19.5867 53.4149 19.6425C52.7707 19.9742 52.1259 20.3059 51.3525 20.704C51.4887 20.4085 51.5739 20.2237 51.6594 20.0384C49.6857 19.1449 47.304 20.7093 47.1801 22.8601C47.8355 22.8077 48.509 22.6707 49.1704 22.7179C50.6472 22.8234 51.8306 22.2415 52.9064 21.2436C52.9419 21.2586 52.9372 21.2536 52.9372 21.2536Z" fill="white"/>
<path d="M53.567 11.1825C54.0744 11.973 54.5724 12.72 55.142 13.5749C54.5286 13.4142 53.993 13.2738 53.284 13.088C53.757 13.7631 54.1444 14.3169 54.6283 15.0073C52.7666 14.0871 51.1661 13.066 49.9436 11.4063C52.374 9.38154 53.8776 6.69334 55.4333 4.04108C56.8779 5.53442 57.4506 9.93927 56.4028 11.6358C56.3067 9.99326 56.1762 8.40434 55.5325 6.9367C54.8679 8.35156 54.2133 9.74534 53.567 11.1825Z" fill="white"/>
<path d="M58.7743 14.1136C59.6357 15.7193 60.1306 17.3867 60.1301 19.2392C59.286 17.691 58.4611 16.1792 57.6096 14.6179C57.8325 14.3307 58.1082 13.9751 58.436 13.5522C58.5525 13.7466 58.6517 13.9125 58.7743 14.1136Z" fill="white"/>
<path d="M37.5063 22.1887C37.463 22.6573 37.2538 22.9833 36.8315 23.0046C36.5904 23.0168 36.2629 22.9119 36.1152 22.7337C35.9529 22.5378 35.9524 22.1972 35.8633 21.8486C36.2133 22.1367 36.4427 22.4743 36.6534 22.4621C36.9283 22.4462 37.1883 22.1531 37.4622 21.9743C37.462 21.973 37.4832 22.0618 37.5063 22.1887Z" fill="white"/>
<path d="M48.1205 21.8568C48.1121 21.6494 48.1121 21.4831 48.1121 21.39C48.4014 21.5702 48.669 21.859 48.9469 21.8701C49.159 21.8787 49.3842 21.5353 49.5821 21.3667C49.7545 21.7807 49.6612 22.1445 49.2568 22.3598C48.8307 22.5868 48.4316 22.4234 48.1205 21.8568Z" fill="white"/>
</g>
<defs>
<clipPath id="clip0_141_712">
<rect width="71" height="76" fill="white"/>
</clipPath>
</defs>
</svg>
