<?xml version="1.0" encoding="UTF-8" standalone="no"?>
<!DOCTYPE svg PUBLIC "-//W3C//DTD SVG 1.1//EN" "http://www.w3.org/Graphics/SVG/1.1/DTD/svg11.dtd">
<svg xmlns="http://www.w3.org/2000/svg" version="1.1" viewBox="0 0 321 292">
<g stroke-width="2.00" fill="none" stroke-linecap="butt">
</g>
<path fill="#000000" d="
  M 0.00 93.19
  L 0.00 42.94
  Q 0.55 38.06 3.98 35.52
  Q 4.67 35.00 11.11 32.15
  Q 43.08 17.96 75.06 3.81
  Q 78.22 2.41 81.25 2.42
  Q 127.62 2.50 174.00 2.50
  Q 179.61 2.50 182.74 3.85
  Q 217.28 18.74 251.51 34.34
  Q 255.01 35.93 256.26 37.64
  Q 258.05 40.08 258.05 43.50
  Q 258.01 63.80 258.00 84.09
  Q 258.00 93.61 257.49 95.36
  Q 255.98 100.50 250.37 101.53
  Q 249.17 101.75 241.61 101.75
  Q 227.51 101.75 213.16 101.75
  A 0.66 0.66 -45.0 0 0 212.50 102.41
  L 212.50 157.33
  A 0.89 0.89 1.0 0 0 213.36 158.22
  Q 224.65 158.60 234.85 161.75
  Q 244.18 164.63 252.84 170.32
  Q 278.99 187.51 285.58 219.79
  Q 287.34 228.43 286.98 237.70
  A 1.35 1.34 -74.4 0 0 287.66 238.92
  Q 301.10 246.48 313.81 253.94
  Q 320.71 257.98 319.65 264.22
  Q 319.02 267.88 314.83 273.35
  Q 304.02 287.43 286.75 290.75
  Q 272.38 293.51 258.06 286.44
  Q 249.79 282.35 205.87 256.07
  A 1.81 1.79 60.3 0 0 204.94 255.81
  Q 176.84 255.70 148.75 255.75
  Q 142.84 255.76 140.00 251.60
  Q 138.23 249.01 138.06 243.52
  Q 137.83 236.34 138.30 228.64
  A 0.84 0.83 1.9 0 0 137.46 227.75
  Q 97.75 227.75 59.00 227.75
  Q 54.72 227.75 52.74 227.14
  Q 47.36 225.47 46.10 220.89
  Q 45.75 219.62 45.75 212.58
  Q 45.75 157.53 45.75 102.31
  A 0.56 0.56 0.0 0 0 45.19 101.75
  Q 28.43 101.75 12.22 101.75
  Q 6.88 101.75 4.56 100.36
  Q 0.87 98.15 0.00 93.19
  Z
  M 107.15 34.10
  Q 115.10 41.19 124.98 42.36
  Q 134.68 43.51 143.42 39.24
  Q 153.89 34.13 159.17 22.17
  A 0.62 0.61 11.8 0 0 158.60 21.31
  L 99.31 21.31
  A 0.36 0.36 -9.3 0 0 98.97 21.78
  Q 101.43 29.01 107.15 34.10
  Z
  M 213.84 37.87
  Q 196.47 30.17 180.35 23.13
  A 1.46 1.46 21.5 0 0 178.39 23.98
  Q 168.38 52.06 143.06 59.32
  Q 133.41 62.08 123.73 61.07
  Q 113.66 60.02 104.80 55.29
  Q 95.84 50.52 89.46 42.67
  Q 82.48 34.07 79.50 23.05
  A 0.55 0.54 70.3 0 0 78.75 22.69
  L 19.49 48.98
  A 0.82 0.79 -12.8 0 0 19.00 49.73
  L 19.18 82.57
  A 0.51 0.49 -0.0 0 0 19.69 83.06
  Q 36.47 82.95 53.25 83.00
  Q 59.99 83.02 62.88 87.78
  Q 64.19 89.94 64.19 94.13
  Q 64.30 151.32 64.25 208.51
  A 0.43 0.42 90.0 0 0 64.67 208.94
  L 141.42 209.06
  A 0.89 0.89 -79.4 0 0 142.25 208.49
  Q 155.81 172.19 193.51 160.77
  A 0.69 0.69 -8.6 0 0 194.00 160.11
  Q 194.00 126.71 194.00 93.63
  Q 194.00 90.03 195.06 88.08
  Q 196.57 85.29 199.38 84.01
  Q 201.57 83.00 207.27 83.01
  Q 222.98 83.03 238.69 82.94
  A 0.50 0.50 45.0 0 0 239.19 82.44
  L 239.25 49.91
  A 1.16 1.15 12.4 0 0 238.57 48.86
  Q 225.80 43.17 213.84 37.87
  Z
  M 231.84 180.46
  Q 215.71 174.76 199.81 178.56
  Q 182.54 182.69 170.80 196.07
  Q 163.86 203.99 160.46 213.05
  Q 156.40 223.86 157.04 236.30
  A 0.54 0.54 88.3 0 0 157.58 236.81
  L 218.69 236.93
  A 0.51 0.50 0.6 0 0 219.20 236.44
  Q 219.37 224.60 219.32 212.75
  Q 219.24 194.04 231.92 180.83
  A 0.23 0.22 -57.4 0 0 231.84 180.46
  Z
  M 243.16 196.67
  Q 237.59 203.95 237.78 213.25
  Q 238.00 224.38 238.00 236.19
  A 0.56 0.56 0.0 0 0 238.56 236.75
  L 267.32 236.75
  A 0.66 0.66 -89.1 0 0 267.98 236.11
  Q 268.69 209.70 249.98 191.62
  A 0.84 0.83 -38.6 0 0 248.97 191.51
  Q 245.46 193.66 243.16 196.67
  Z
  M 256.09 263.97
  Q 262.24 267.53 266.06 269.44
  Q 282.09 277.44 295.93 266.22
  A 0.61 0.61 -49.0 0 0 295.86 265.22
  Q 288.39 260.63 280.66 256.59
  Q 278.70 255.56 276.46 255.55
  Q 259.85 255.51 243.24 255.99
  Q 242.75 256.00 243.18 256.26
  Q 249.58 260.21 256.09 263.97
  Z"
/>
</svg>
