<?xml version="1.0" encoding="UTF-8" standalone="no"?>
<!DOCTYPE svg PUBLIC "-//W3C//DTD SVG 1.1//EN" "http://www.w3.org/Graphics/SVG/1.1/DTD/svg11.dtd">
<svg xmlns="http://www.w3.org/2000/svg" version="1.1" viewBox="0 0 301 301">
<g stroke-width="2.00" fill="none" stroke-linecap="butt">
<path stroke="#FF6464" vector-effect="non-scaling-stroke" d="
  M 149.42 81.28
  Q 133.99 64.12 112.37 55.49
  Q 103.29 51.86 94.25 51.00
  Q 75.79 49.24 60.46 57.85
  Q 51.74 62.75 45.19 70.55
  Q 34.66 83.09 31.83 100.01
  Q 30.21 109.73 31.00 118.50
  Q 32.83 138.68 42.57 157.12
  Q 47.60 166.64 55.00 176.75
  Q 91.38 226.46 148.80 248.93
  A 3.14 3.13 45.1 0 0 151.08 248.94
  Q 183.34 236.58 209.04 215.16
  Q 216.81 208.68 223.85 201.73
  Q 243.63 182.20 257.10 157.64
  Q 267.78 138.15 269.25 116.50
  Q 270.54 97.58 262.15 81.35
  Q 257.41 72.18 250.17 65.47
  Q 236.14 52.48 216.58 50.92
  Q 208.96 50.32 200.96 51.65
  Q 192.76 53.01 185.81 56.06
  Q 165.87 64.83 150.63 81.28
  A 0.82 0.82 -44.8 0 1 149.42 81.28"
/>
<path stroke="#FF6464" vector-effect="non-scaling-stroke" d="
  M 161.7290 142.0039
  A 20.26 13.71 107.2 0 0 180.8169 126.7042
  A 20.26 13.71 107.2 0 0 173.7110 103.2961
  A 20.26 13.71 107.2 0 0 154.6231 118.5958
  A 20.26 13.71 107.2 0 0 161.7290 142.0039"
/>
<path stroke="#FF6464" vector-effect="non-scaling-stroke" d="
  M 138.4548 141.9835
  A 20.26 13.71 72.7 0 0 145.5198 118.5630
  A 20.26 13.71 72.7 0 0 126.4052 103.2965
  A 20.26 13.71 72.7 0 0 119.3402 126.7170
  A 20.26 13.71 72.7 0 0 138.4548 141.9835"
/>
<path stroke="#FF6464" vector-effect="non-scaling-stroke" d="
  M 114.7696 165.8571
  A 18.79 12.73 67.8 0 0 119.4563 143.6501
  A 18.79 12.73 67.8 0 0 100.5704 131.0629
  A 18.79 12.73 67.8 0 0 95.8837 153.2699
  A 18.79 12.73 67.8 0 0 114.7696 165.8571"
/>
<path stroke="#FF6464" vector-effect="non-scaling-stroke" d="
  M 185.3804 165.8571
  A 18.79 12.73 112.2 0 0 204.2663 153.2699
  A 18.79 12.73 112.2 0 0 199.5796 131.0629
  A 18.79 12.73 112.2 0 0 180.6937 143.6501
  A 18.79 12.73 112.2 0 0 185.3804 165.8571"
/>
<path stroke="#FF6464" vector-effect="non-scaling-stroke" d="
  M 168.39 153.85
  Q 164.75 150.52 158.75 147.50
  Q 153.78 145.00 148.86 145.32
  Q 144.88 145.58 139.64 148.45
  Q 122.26 157.94 120.45 178.32
  Q 120.02 183.18 120.08 185.68
  Q 120.19 189.88 121.81 192.94
  Q 123.50 196.12 126.00 196.75
  Q 130.33 197.85 134.66 198.92
  Q 139.97 200.25 143.43 200.62
  Q 158.16 202.21 172.22 197.43
  Q 175.60 196.27 177.17 194.60
  Q 179.28 192.35 179.69 189.19
  Q 181.35 176.34 175.74 163.97
  Q 173.10 158.16 168.39 153.85"
/>
</g>
<path fill="none" d="
  M 0.00 0.00
  L 301.00 0.00
  L 301.00 301.00
  L 0.00 301.00
  L 0.00 0.00
  Z
  M 149.42 81.28
  Q 133.99 64.12 112.37 55.49
  Q 103.29 51.86 94.25 51.00
  Q 75.79 49.24 60.46 57.85
  Q 51.74 62.75 45.19 70.55
  Q 34.66 83.09 31.83 100.01
  Q 30.21 109.73 31.00 118.50
  Q 32.83 138.68 42.57 157.12
  Q 47.60 166.64 55.00 176.75
  Q 91.38 226.46 148.80 248.93
  A 3.14 3.13 45.1 0 0 151.08 248.94
  Q 183.34 236.58 209.04 215.16
  Q 216.81 208.68 223.85 201.73
  Q 243.63 182.20 257.10 157.64
  Q 267.78 138.15 269.25 116.50
  Q 270.54 97.58 262.15 81.35
  Q 257.41 72.18 250.17 65.47
  Q 236.14 52.48 216.58 50.92
  Q 208.96 50.32 200.96 51.65
  Q 192.76 53.01 185.81 56.06
  Q 165.87 64.83 150.63 81.28
  A 0.82 0.82 -44.8 0 1 149.42 81.28
  Z"
/>
<path fill="#FF6464" d="
  M 149.42 81.28
  A 0.82 0.82 -44.8 0 0 150.63 81.28
  Q 165.87 64.83 185.81 56.06
  Q 192.76 53.01 200.96 51.65
  Q 208.96 50.32 216.58 50.92
  Q 236.14 52.48 250.17 65.47
  Q 257.41 72.18 262.15 81.35
  Q 270.54 97.58 269.25 116.50
  Q 267.78 138.15 257.10 157.64
  Q 243.63 182.20 223.85 201.73
  Q 216.81 208.68 209.04 215.16
  Q 183.34 236.58 151.08 248.94
  A 3.14 3.13 45.1 0 1 148.80 248.93
  Q 91.38 226.46 55.00 176.75
  Q 47.60 166.64 42.57 157.12
  Q 32.83 138.68 31.00 118.50
  Q 30.21 109.73 31.83 100.01
  Q 34.66 83.09 45.19 70.55
  Q 51.74 62.75 60.46 57.85
  Q 75.79 49.24 94.25 51.00
  Q 103.29 51.86 112.37 55.49
  Q 133.99 64.12 149.42 81.28
  Z
  M 161.7290 142.0039
  A 20.26 13.71 107.2 0 0 180.8169 126.7042
  A 20.26 13.71 107.2 0 0 173.7110 103.2961
  A 20.26 13.71 107.2 0 0 154.6231 118.5958
  A 20.26 13.71 107.2 0 0 161.7290 142.0039
  Z
  M 138.4548 141.9835
  A 20.26 13.71 72.7 0 0 145.5198 118.5630
  A 20.26 13.71 72.7 0 0 126.4052 103.2965
  A 20.26 13.71 72.7 0 0 119.3402 126.7170
  A 20.26 13.71 72.7 0 0 138.4548 141.9835
  Z
  M 114.7696 165.8571
  A 18.79 12.73 67.8 0 0 119.4563 143.6501
  A 18.79 12.73 67.8 0 0 100.5704 131.0629
  A 18.79 12.73 67.8 0 0 95.8837 153.2699
  A 18.79 12.73 67.8 0 0 114.7696 165.8571
  Z
  M 185.3804 165.8571
  A 18.79 12.73 112.2 0 0 204.2663 153.2699
  A 18.79 12.73 112.2 0 0 199.5796 131.0629
  A 18.79 12.73 112.2 0 0 180.6937 143.6501
  A 18.79 12.73 112.2 0 0 185.3804 165.8571
  Z
  M 168.39 153.85
  Q 164.75 150.52 158.75 147.50
  Q 153.78 145.00 148.86 145.32
  Q 144.88 145.58 139.64 148.45
  Q 122.26 157.94 120.45 178.32
  Q 120.02 183.18 120.08 185.68
  Q 120.19 189.88 121.81 192.94
  Q 123.50 196.12 126.00 196.75
  Q 130.33 197.85 134.66 198.92
  Q 139.97 200.25 143.43 200.62
  Q 158.16 202.21 172.22 197.43
  Q 175.60 196.27 177.17 194.60
  Q 179.28 192.35 179.69 189.19
  Q 181.35 176.34 175.74 163.97
  Q 173.10 158.16 168.39 153.85
  Z"
/>
<ellipse fill="#fefefe" cx="0.00" cy="0.00" transform="translate(167.72,122.65) rotate(107.2)" rx="20.26" ry="13.71"/>
<ellipse fill="#fefefe" cx="0.00" cy="0.00" transform="translate(132.43,122.64) rotate(72.7)" rx="20.26" ry="13.71"/>
<ellipse fill="#fefefe" cx="0.00" cy="0.00" transform="translate(107.67,148.46) rotate(67.8)" rx="18.79" ry="12.73"/>
<ellipse fill="#fefefe" cx="0.00" cy="0.00" transform="translate(192.48,148.46) rotate(112.2)" rx="18.79" ry="12.73"/>
<path fill="#fefefe" d="
  M 168.39 153.85
  Q 173.10 158.16 175.74 163.97
  Q 181.35 176.34 179.69 189.19
  Q 179.28 192.35 177.17 194.60
  Q 175.60 196.27 172.22 197.43
  Q 158.16 202.21 143.43 200.62
  Q 139.97 200.25 134.66 198.92
  Q 130.33 197.85 126.00 196.75
  Q 123.50 196.12 121.81 192.94
  Q 120.19 189.88 120.08 185.68
  Q 120.02 183.18 120.45 178.32
  Q 122.26 157.94 139.64 148.45
  Q 144.88 145.58 148.86 145.32
  Q 153.78 145.00 158.75 147.50
  Q 164.75 150.52 168.39 153.85
  Z"
/>
</svg>
