<?xml version="1.0" encoding="UTF-8" standalone="no"?>
<!DOCTYPE svg PUBLIC "-//W3C//DTD SVG 1.1//EN" "http://www.w3.org/Graphics/SVG/1.1/DTD/svg11.dtd">
<svg xmlns="http://www.w3.org/2000/svg" version="1.1" viewBox="0 0 325 325">
<path fill="#000000" d="
  M 179.78 2.43
  C 251.45 13.89 306.21 68.75 320.85 139.23
  C 321.89 144.25 322.29 148.92 317.98 151.85
  C 312.96 155.27 306.77 153.35 304.25 147.75
  Q 303.55 146.20 302.60 141.28
  C 291.15 82.14 240.41 30.34 180.32 20.80
  C 165.75 18.49 168.26 0.59 179.78 2.43
  Z"
/>
<path fill="#000000" d="
  M 92.81 37.44
  Q 100.66 45.15 119.94 64.56
  C 130.76 75.46 138.21 87.74 131.29 103.01
  C 126.51 113.53 112.09 126.10 102.51 135.08
  A 1.09 1.08 55.5 0 0 102.28 136.36
  C 116.06 164.46 140.81 190.12 165.86 208.42
  Q 175.59 215.53 187.23 221.20
  A 0.73 0.73 43.1 0 0 188.07 221.06
  Q 196.94 212.19 205.96 203.20
  C 223.63 185.60 239.84 185.09 257.86 203.14
  Q 265.80 211.09 289.81 235.44
  C 293.36 239.04 296.50 242.36 298.71 246.70
  C 311.29 271.40 288.27 287.61 273.33 302.89
  Q 265.09 311.32 260.12 314.43
  C 228.62 334.14 178.73 310.63 149.91 294.26
  C 102.89 267.55 63.86 228.85 35.03 183.23
  C 17.73 155.85 -1.09 116.12 2.87 82.95
  C 5.39 61.85 21.74 48.89 35.94 34.94
  C 47.00 24.07 57.93 16.69 73.69 22.70
  C 81.51 25.68 86.48 31.22 92.81 37.44
  Z
  M 241.06 212.44
  C 233.72 205.28 227.82 207.46 221.11 213.82
  Q 209.87 224.47 199.09 235.59
  Q 191.17 243.77 180.75 238.50
  C 147.37 221.63 119.44 195.22 97.98 165.03
  C 92.51 157.33 80.63 139.27 83.48 130.52
  Q 84.39 127.75 88.21 123.84
  Q 99.71 112.07 104.19 107.94
  C 109.16 103.36 116.75 96.52 115.65 89.78
  C 114.83 84.66 110.55 80.97 106.69 77.06
  Q 90.33 60.53 73.72 44.27
  C 68.01 38.69 61.23 36.48 54.69 42.19
  Q 50.38 45.94 30.55 66.06
  Q 22.46 74.27 21.04 85.23
  C 20.21 91.64 20.63 101.53 22.25 108.25
  C 34.30 158.15 67.74 204.48 104.49 238.51
  C 132.05 264.03 165.90 286.06 201.66 298.15
  Q 210.89 301.27 225.75 303.25
  Q 246.21 305.98 259.09 291.84
  Q 271.77 277.93 277.19 273.19
  C 287.01 264.59 285.74 256.46 277.06 248.09
  C 264.90 236.38 253.15 224.23 241.06 212.44
  Z"
/>
<path fill="#000000" d="
  M 179.40 60.53
  C 222.44 68.44 255.48 102.06 263.47 145.01
  C 265.84 157.77 248.29 161.04 245.56 147.94
  C 237.94 111.34 211.39 85.11 174.75 78.00
  C 163.50 75.81 165.86 58.05 179.40 60.53
  Z"
/>
</svg>
