<?xml version="1.0" encoding="UTF-8" standalone="no"?>
<!DOCTYPE svg PUBLIC "-//W3C//DTD SVG 1.1//EN" "http://www.w3.org/Graphics/SVG/1.1/DTD/svg11.dtd">
<svg xmlns="http://www.w3.org/2000/svg" version="1.1" viewBox="0 0 271 322">

<path fill="#010101" d="
  M 84.20 259.45
  Q 84.36 250.81 84.25 248.75
  Q 83.83 240.82 90.27 236.70
  A 0.93 0.86 -18.3 0 0 90.69 235.94
  L 90.51 218.25
  A 1.14 1.04 21.9 0 0 90.11 217.42
  Q 73.11 203.06 67.72 181.95
  Q 66.26 176.26 65.86 168.31
  Q 65.47 160.55 65.75 154.50
  Q 66.27 143.12 66.08 136.25
  Q 65.73 123.38 65.84 110.50
  Q 65.90 103.75 72.57 105.44
  Q 74.96 106.05 75.00 108.51
  Q 75.36 133.91 75.29 159.33
  Q 75.26 172.48 76.61 178.56
  Q 80.97 198.20 97.84 211.38
  Q 99.77 212.88 99.79 215.15
  L 99.97 234.51
  A 0.94 0.91 89.7 0 0 100.88 235.44
  L 152.25 235.50
  A 0.50 0.50 45.0 0 0 152.75 235.00
  Q 152.75 227.53 152.75 220.06
  Q 152.75 214.98 152.88 214.46
  Q 153.55 211.65 156.68 210.74
  Q 158.71 210.15 158.78 210.13
  Q 166.95 207.00 171.99 199.74
  Q 175.32 194.96 177.69 189.62
  Q 197.33 145.28 216.97 100.86
  Q 218.07 98.38 215.36 98.21
  Q 201.65 97.37 195.89 110.31
  Q 188.66 126.53 185.44 132.94
  Q 182.44 138.89 176.64 142.00
  Q 174.59 143.10 168.47 144.47
  Q 143.12 150.16 137.10 176.05
  Q 136.50 178.60 135.53 179.47
  Q 133.96 180.88 131.43 180.35
  Q 128.80 179.79 128.05 177.68
  Q 127.59 176.37 128.14 173.83
  Q 134.66 144.14 164.29 135.82
  A 0.63 0.62 -8.0 0 0 164.75 135.22
  Q 164.75 85.00 164.75 35.00
  Q 164.75 31.17 162.14 28.89
  Q 159.77 26.81 156.39 27.07
  Q 152.33 27.38 150.53 30.92
  Q 149.50 32.94 149.51 37.25
  Q 149.64 70.88 149.26 104.50
  A 1.74 1.55 65.7 0 1 148.97 105.42
  Q 145.60 110.21 141.34 106.42
  A 3.23 3.22 -69.3 0 1 140.26 104.01
  Q 140.17 61.06 140.01 20.45
  Q 140.00 16.86 139.28 15.15
  Q 138.08 12.31 135.36 11.09
  Q 131.93 9.56 128.72 11.34
  Q 126.35 12.66 125.35 15.32
  Q 124.75 16.90 124.75 20.26
  Q 124.74 60.51 124.51 100.77
  Q 124.51 100.85 124.61 102.73
  Q 124.78 105.51 122.83 106.98
  Q 121.04 108.32 118.83 107.72
  Q 115.52 106.81 115.50 102.25
  Q 115.34 70.37 115.25 38.49
  Q 115.25 38.40 115.38 36.01
  Q 115.56 32.48 113.56 29.94
  Q 110.49 26.02 106.30 27.05
  Q 103.01 27.85 101.26 30.82
  Q 99.78 33.31 99.91 36.45
  Q 100.00 38.50 100.00 38.55
  Q 99.97 76.28 99.71 114.01
  Q 99.68 117.07 98.38 118.46
  Q 96.02 120.96 92.15 118.54
  Q 90.74 117.66 90.75 116.00
  Q 90.87 92.00 90.52 67.76
  Q 90.52 67.68 90.61 65.24
  Q 90.78 61.09 87.94 58.56
  Q 85.08 56.02 81.65 56.73
  Q 78.51 57.38 76.77 60.08
  Q 74.96 62.90 75.25 67.00
  Q 75.57 71.51 75.11 83.30
  Q 74.97 86.83 73.58 88.28
  Q 71.28 90.66 67.30 88.43
  A 2.58 2.58 13.3 0 1 65.99 86.31
  Q 65.71 80.00 65.70 73.60
  Q 65.68 63.34 66.22 60.93
  Q 68.05 52.92 76.34 48.87
  Q 82.69 45.78 89.49 48.60
  A 0.92 0.92 10.8 0 0 90.77 47.73
  Q 90.62 40.80 90.84 34.46
  Q 90.99 30.13 92.44 27.33
  Q 96.47 19.54 105.40 17.84
  Q 107.78 17.38 110.10 17.76
  Q 112.42 18.14 114.71 18.99
  A 0.58 0.58 11.2 0 0 115.50 18.47
  Q 115.77 8.94 122.78 4.06
  Q 126.36 1.57 130.66 1.16
  Q 135.18 0.73 139.25 2.53
  Q 143.97 4.61 146.49 8.89
  Q 148.87 12.91 149.40 18.55
  A 0.61 0.61 -13.9 0 0 150.25 19.06
  Q 155.11 17.03 159.46 17.95
  Q 169.40 20.06 172.88 28.48
  Q 174.25 31.79 174.25 38.21
  Q 174.25 84.62 174.25 131.25
  Q 174.25 132.35 174.98 131.53
  Q 176.36 129.95 177.24 128.09
  Q 180.75 120.68 184.14 113.22
  Q 189.08 102.34 191.95 98.89
  Q 200.05 89.15 213.69 88.70
  Q 217.99 88.56 220.96 90.37
  Q 226.41 93.69 226.28 99.95
  Q 226.22 103.18 223.38 109.59
  Q 206.87 146.94 190.15 184.20
  Q 182.90 200.37 181.69 202.29
  Q 175.02 212.82 162.78 218.76
  A 0.93 0.92 77.5 0 0 162.25 219.60
  L 162.25 235.88
  A 1.01 1.00 -72.4 0 0 162.67 236.70
  Q 169.12 241.26 168.90 248.75
  Q 168.75 253.87 168.75 259.22
  A 0.67 0.66 7.4 0 0 169.25 259.86
  Q 175.28 261.49 177.52 266.12
  Q 178.75 268.67 178.76 275.57
  Q 178.78 295.37 178.70 315.18
  Q 178.69 317.49 178.08 318.58
  Q 177.10 320.37 175.00 320.75
  Q 171.12 321.46 169.56 317.69
  Q 169.00 316.33 169.04 312.00
  Q 169.25 291.37 169.25 270.73
  A 1.52 1.51 2.0 0 0 167.84 269.22
  Q 161.76 268.82 155.27 269.24
  Q 149.48 269.62 149.25 264.72
  Q 149.16 262.77 150.03 261.59
  Q 151.11 260.14 153.25 260.07
  Q 155.25 260.00 158.47 260.00
  A 0.77 0.77 0.0 0 0 159.24 259.23
  L 159.19 246.30
  A 1.08 1.07 0.3 0 0 158.13 245.24
  Q 126.50 244.63 94.99 245.24
  A 1.07 1.03 -90.0 0 0 93.98 246.29
  L 93.74 259.20
  A 0.78 0.74 -89.2 0 0 94.48 260.00
  Q 111.23 259.96 128.19 260.05
  Q 130.76 260.06 131.92 261.05
  Q 133.66 262.53 133.25 265.25
  Q 132.65 269.24 128.25 269.17
  Q 106.62 268.82 85.65 269.24
  Q 83.74 269.27 83.75 271.18
  Q 83.79 292.89 83.70 314.08
  Q 83.69 316.96 83.12 318.20
  Q 82.06 320.55 79.41 320.81
  Q 77.31 321.01 75.86 319.77
  Q 74.25 318.39 74.25 316.00
  Q 74.25 295.29 74.25 274.58
  Q 74.25 268.27 75.61 265.65
  Q 77.95 261.13 83.69 260.03
  A 0.64 0.60 -5.4 0 0 84.20 259.45
  Z"
/>
<rect fill="#010101" x="-11.12" y="-4.65" transform="translate(25.59,81.78) rotate(30.3)" width="22.24" height="9.30" rx="4.48"/>
<rect fill="#010101" x="-11.06" y="-4.71" transform="translate(256.37,128.23) rotate(-0.3)" width="22.12" height="9.42" rx="4.49"/>
<rect fill="#010101" x="-11.07" y="-4.72" transform="translate(13.63,128.50) rotate(-0.3)" width="22.14" height="9.44" rx="4.50"/>
<rect fill="#010101" x="-11.11" y="-4.67" transform="translate(26.62,174.85) rotate(-30.5)" width="22.22" height="9.34" rx="4.49"/>
<rect fill="#010101" x="-11.10" y="-4.65" transform="translate(244.38,174.86) rotate(30.3)" width="22.20" height="9.30" rx="4.49"/>
</svg>
